<?xml version="1.0" standalone="no"?> 
<!DOCTYPE svg PUBLIC "-//W3C//DTD SVG 1.1//EN" "http://www.w3.org/Graphics/SVG/1.1/DTD/svg11.dtd" >
<svg xmlns="http://www.w3.org/2000/svg">
<defs>
  <font id="teleicon-ui" horiz-adv-x="64.001">
    <font-face font-family="teleicon-ui"
      units-per-em="64" ascent="64"
      descent="0" />
    <missing-glyph horiz-adv-x="0" />
    <glyph glyph-name="add-outline"
      unicode="&#xE001;"
      horiz-adv-x="64" d=" M32 59C16.5 59 4 46.5 4 31S16.5 3 32 3S60 15.5 60 31C60 38.4 57.1 45.5 51.8 50.8S39.4 59 32 59zM32 6C18.2 6 7 17.2 7 31S18.2 56 32 56S57 44.8 57 31C57 24.4 54.4 18 49.7 13.3S38.6 6 32 6zM47.5 32.5H33.5V46.5C33.5 47.3 32.8 48 32 48S30.5 47.3 30.5 46.5V32.5H16.5C15.7 32.5 15 31.8 15 31S15.7 29.5 16.5 29.5H30.5V15.5C30.5 14.7 31.2 14 32 14S33.5 14.7 33.5 15.5V29.5H47.5C48.3 29.5 49 30.2 49 31S48.3 32.5 47.5 32.5z" />
    <glyph glyph-name="arrow-down"
      unicode="&#xE002;"
      horiz-adv-x="64" d=" M9.5 42.5C9.5 42.9 9.6 43.3 9.9 43.6C10.5 44.2 11.4 44.2 12 43.6L32 23.6L51.9 43.5C52.5 44.1 53.4 44.1 54 43.5C54.6 42.9 54.6 42 54 41.4L33 20.4C32.4 19.8 31.5 19.8 30.9 20.4L9.9 41.4C9.6 41.7 9.5 42.1 9.5 42.5z" />
    <glyph glyph-name="arrow-left"
      unicode="&#xE003;"
      horiz-adv-x="64" d=" M39.5 9.9L18.5 30.9C17.9 31.5 17.9 32.4 18.5 33L39.5 54C40.1 54.6 41 54.6 41.6 54S42.2 52.5 41.6 51.9L21.7 32L41.6 12.1C42.2 11.5 42.2 10.6 41.6 10C41.3 9.7 40.9 9.6 40.5 9.6C40.2 9.5 39.8 9.6 39.5 9.9z" />
    <glyph glyph-name="arrow-right"
      unicode="&#xE004;"
      horiz-adv-x="64.001" d=" M23.001 9.5C22.617 9.5 22.233 9.646 21.94 9.939C21.354 10.525 21.354 11.474 21.94 12.06L41.88 32L21.94 51.939C21.354 52.525 21.354 53.474 21.94 54.06C22.526 54.646 23.475 54.646 24.061 54.06L45.061 33.06C45.647 32.474 45.647 31.525 45.061 30.939L24.061 9.939C23.769 9.646 23.385 9.5 23.001 9.5z" />
    <glyph glyph-name="arrow-up"
      unicode="&#xE005;"
      horiz-adv-x="64" d=" M54.5 21.5C54.5 21.1 54.4 20.7 54.1 20.4C53.5 19.8 52.6 19.8 52 20.4L32 40.4L12.1 20.4C11.5 19.8 10.6 19.8 10 20.4C9.4 21 9.4 21.9 10 22.5L31 43.5C31.6 44.1 32.5 44.1 33.1 43.5L54.1 22.5C54.4 22.3 54.5 21.9 54.5 21.5z" />
    <glyph glyph-name="award"
      unicode="&#xE006;"
      horiz-adv-x="64" d=" M61.2 19.38A2.56 2.56 0 0 0 58.87 17.79L51.93 16.36A1.6399999999999997 1.6399999999999997 0 0 1 50.73 15.19L49.39 8.06A2.45 2.45 0 0 0 47 5.8A2.77 2.77 0 0 0 45 6.65L41 10.75V5.33A2.51 2.51 0 0 0 38.57 2.59A3.08 3.08 0 0 0 36.92 3.15L31.32 7.15A2.42 2.42 0 0 1 30.42 7.36A2 2 0 0 1 29.54 7.06L23.62 3.06A3.11 3.11 0 0 0 21.96 2.5A2.57 2.57 0 0 0 19.53 5.24V14.9A25.45 25.45 0 0 1 22.53 13.76V5.95L27.93 9.58A5 5 0 0 0 30.42 10.35A5.4 5.4 0 0 0 32.74 9.78L32.94 9.66L38 6.07V13.89A25.63 25.63 0 0 1 41 15.07L46.65 9.33L47.86 15.73A4.58 4.58 0 0 0 51.44 19.3L57.75 20.6L52.53 25.82A25.79 25.79 0 0 1 53.91 28.69L60.51 22.09A2.54 2.54 0 0 0 61.2 19.38zM36.9 15.66L37.61 15.86L38.39 17.86L40.24 17.1L40.86 17.43A23.44 23.44 0 0 1 50.77 27.34L51.06 27.91L50.45 29.67L52.45 30.47L52.67 31.15A22.77 22.77 0 0 1 53.67 38.15A25.41 25.41 0 0 1 52.67 45.15L52.48 45.81L50.48 46.75L51.27 48.69L51 49.31A23.420000000000005 23.420000000000005 0 0 1 41 59.21L40.39 59.53L38.51 58.76L37.66 60.76L37 61A22.870000000000005 22.870000000000005 0 0 1 30 62A25.59 25.59 0 0 1 23 61L22.31 60.81L21.45 58.81L19.55 59.58L19 59.2A23.420000000000005 23.420000000000005 0 0 1 9.1 49.29L8.79 48.68L9.56 46.79L7.56 45.94L7.35 45.29A22.82 22.82 0 0 1 6.35 38.29A25.55 25.55 0 0 1 7.35 31.29L7.55 30.57L9.55 29.79L8.79 27.93L9.12 27.31A23.429999999999996 23.429999999999996 0 0 1 19 17.41L19.61 17.1L21.45 17.85L22.22 15.85L22.9 15.63A22.870000000000005 22.870000000000005 0 0 1 29.9 14.63A25.520000000000003 25.520000000000003 0 0 1 36.9 15.66zM23.13 21.77L19.76 20.4A20.44 20.44 0 0 0 12.06 28.12L13.42 31.47L10 32.82A22.15 22.15 0 0 0 9.28 38.27A19.91 19.91 0 0 0 9.98 43.74L13.39 45.2L12.04 48.52A20.42 20.42 0 0 0 19.76 56.22L23.07 54.87L24.52 58.27A22.15 22.15 0 0 0 30 59A20 20 0 0 0 35.47 58.3L37 54.87L40.32 56.23A20.430000000000003 20.430000000000003 0 0 0 48 48.51L46.67 45.24L50 43.67A22.059999999999995 22.059999999999995 0 0 0 50.73 38.17A19.86 19.86 0 0 0 50.03 32.73L46.66 31.41L47.79 28.16A20.42 20.42 0 0 0 40.04 20.42L36.69 21.78L35.35 18.36A22.100000000000005 22.100000000000005 0 0 0 29.9 17.64A20 20 0 0 0 24.46 18.33zM43 38.27A13 13 0 1 0 30 51.27A13 13 0 0 0 43 38.27zM33.61 36.89L39.47 41.14H32.23L30 47.94L27.79 41.14H20.59L26.45 36.89L24.24 30.09L30 34.25L35.78 30.09z" />
    <glyph glyph-name="cart"
      unicode="&#xE007;"
      horiz-adv-x="64" d=" M51 12C51 9.8 49.2 8 47 8S43 9.8 43 12S44.8 16 47 16S51 14.2 51 12zM25 16C22.8 16 21 14.2 21 12S22.8 8 25 8S29 9.8 29 12S27.2 16 25 16zM61 49L56.7 30C56.4 28.9 55.4 28 54.3 28H21.5L22.5 21.7C22.6 21.3 22.9 21 23.3 21H53.4C54.2 21 54.9 20.3 54.9 19.5S54.3 18 53.5 18H23.3C21.4 18 19.8 19.4 19.5 21.3L18.2 29.8C18.2 29.9 18.1 30 18.1 30.1L16.3 41.7L14.7 52.4C14.7 52.7 14.3 53 14 53H3.5C2.7 53 2 53.7 2 54.5S2.7 56 3.5 56H13.9C15.8 56 17.4 54.6 17.7 52.7L18 51H59.5C60.3 51 61.1 50.4 61.1 49.5C61.1 49.4 61.1 49.2 61 49zM18.5 48L19.1 44H56.9L57.8 48H18.5zM28 42V31H37V42H28zM39 31H48V42H39V31zM26 31V42H19.4L21.1 31H26zM56.4 42H50V31H53.9L56.4 42z" />
    <glyph glyph-name="chat"
      unicode="&#xE008;"
      horiz-adv-x="64" d=" M58 60H17C15.9 60 15 59.1 15 58V28C15 26.9 15.9 26 17 26H27V18H7V46H13V49H6C4.9 49 4 48.1 4 47V17C4 15.9 4.9 15 6 15H27L38 4V15H47C48.1 15 49 15.9 49 17V24H46V18H35V11.2L29.1 17.1L38 26H58C59.1 26 60 26.9 60 28V58C60 59.1 59.1 60 58 60zM57 29H36.8L30 22.2V29H18V57H57V29z" />
    <glyph glyph-name="check-solid"
      unicode="&#xE009;"
      horiz-adv-x="64.001" d=" M32 60C16.533 60 4.001 47.465 4.001 31.998C4.001 16.533 16.533 4 32 4C47.465 4 60.001 16.533 60.001 31.998C60.001 47.465 47.465 60 32 60zM48.061 40.94L28.061 20.94C27.768 20.646 27.384 20.5 27 20.5C26.616 20.5 26.232 20.646 25.939 20.939L16.939 29.939C16.353 30.525 16.353 31.474 16.939 32.06C17.525 32.646 18.474 32.646 19.06 32.06L27 24.121L45.939 43.06C46.525 43.646 47.474 43.646 48.06 43.06C48.646 42.475 48.646 41.525 48.061 40.94z" />
    <glyph glyph-name="check"
      unicode="&#xE00A;"
      horiz-adv-x="64.001" d=" M32 60C16.534 60 4.001 47.465 4.001 31.998C4.001 16.533 16.534 4 32 4C47.465 4 60.001 16.533 60.001 31.998C60.001 47.465 47.465 60 32 60zM32 7C18.215 7 7.001 18.214 7.001 31.998C7.001 45.784 18.215 57 32 57S57.001 45.784 57.001 31.998C57.001 18.214 45.785 7 32 7zM45.94 43.06L27 24.121L19.061 32.06C18.475 32.646 17.526 32.646 16.94 32.06C16.354 31.474 16.354 30.525 16.94 29.939L25.94 20.939C26.233 20.646 26.617 20.5 27 20.5S27.768 20.646 28.061 20.939L48.061 40.939C48.647 41.525 48.647 42.474 48.061 43.06C47.475 43.646 46.526 43.646 45.94 43.06z" />
    <glyph glyph-name="checkmark"
      unicode="&#xE00B;"
      horiz-adv-x="64" d=" M23 14.8C22.6 14.8 22.3 15 22 15.2L8.5 28C7.9 28.6 7.8 29.5 8.4 30.1S9.9 30.8 10.5 30.2C10.5 30.2 10.5 30.2 10.5 30.2L23 18.4L53.4 48.8C54 49.4 55 49.3 55.5 48.7C56 48.1 56 47.2 55.5 46.7L24.1 15.2C23.8 14.9 23.4 14.8 23 14.8z" />
    <glyph glyph-name="choose-document"
      unicode="&#xE00C;"
      horiz-adv-x="64" d=" M39.9 60.1H10.9C9.8 60.1 8.9 59.2 8.9 58.1V6.1C8.9 5 9.8 4.1 10.9 4.1H52.9C54 4.1 54.9 5 54.9 6.1V45.1L39.9 60.1zM39.1 56.7L51.5 44.3H40.3C39.6 44.3 39.1 44.9 39.1 45.5V56.7zM51.9 7.1H11.9V57.1H37.1V45.5C37.1 43.7 38.6 42.3 40.3 42.3H51.9V7.1zM24.1 27.7C23.5 28.3 22.6 28.3 22 27.7C21.4 27.1 21.4 26.2 22 25.6L29.1 18.5L44.2 33.6C44.8 34.2 44.8 35.1 44.2 35.7C43.6 36.3 42.7 36.3 42.1 35.7L29 22.8L24.1 27.7z" />
    <glyph glyph-name="circle"
      unicode="&#xE00D;"
      horiz-adv-x="64" d=" M32 60A28 28 0 1 1 60 32A28 28 0 0 1 32 60zM32 7A25 25 0 1 0 57 32A25 25 0 0 0 32 7z" />
    <glyph glyph-name="close"
      unicode="&#xE00E;"
      horiz-adv-x="64.001" d=" M52.061 14.061L34.122 32L52.06 49.939C52.646 50.525 52.646 51.474 52.06 52.06C51.474 52.646 50.524 52.646 49.939 52.06L32.001 34.121L14.061 52.061C13.475 52.647 12.526 52.647 11.94 52.061C11.354 51.475 11.354 50.526 11.94 49.94L29.88 32L11.942 14.061C11.356 13.475 11.356 12.526 11.942 11.94C12.235 11.647 12.619 11.501 13.003 11.501C13.387 11.501 13.771 11.647 14.063 11.94L32.001 29.879L49.94 11.939C50.233 11.646 50.617 11.5 51.001 11.5C51.385 11.5 51.769 11.646 52.061 11.939C52.647 12.525 52.647 13.475 52.061 14.061z" />
    <glyph glyph-name="delivery"
      unicode="&#xE00F;"
      horiz-adv-x="64" d=" M30.18 22.33A8.5 8.5 0 1 1 34.68 11.18A8.47 8.47 0 0 1 30.18 22.33zM31 12.74A4.5 4.5 0 1 0 28.61 18.64A4.5 4.5 0 0 0 31 12.74zM2.23 53.74L11 50L12.56 53.68L3.8 57.43zM26.87 25H26.87A10.41 10.41 0 0 0 29.75 24.59L20.42 47.69A7.49 7.49 0 0 1 16.81 51.36L14.2 52.47L13 49.71L15.61 48.6A4.58 4.58 0 0 0 17.61 46.6L26.35 25zM61.26 31.31L51.63 55.15A2 2 0 0 1 49 56.25L25.19 46.62A2 2 0 0 1 24.09 44.02L32.42 23.4A10.39 10.39 0 0 0 36.3 19.08H36.3L60.13 28.71A2 2 0 0 1 61.25 31.32zM36.12 22.24L27.24 44.24L36.24 47.88L45.12 25.88zM49.12 27.47L40.24 49.47L49.24 53.11L58.12 31.11zM55.6 24.67L37 17.17A10.4 10.4 0 0 0 37.34 14.07L56.68 21.9A1.5 1.5 0 0 1 55.56 24.68z" />
    <glyph glyph-name="dial-pad"
      unicode="&#xE010;"
      horiz-adv-x="64" d=" M25 15A1 1 0 0 0 26 16H38A1 1 0 0 0 39 15V7A1 1 0 0 0 38 6H26A1 1 0 0 0 25 7zM6 21A1 1 0 0 1 7 20H19A1 1 0 0 1 20 21V29A1 1 0 0 1 19 30H7A1 1 0 0 1 6 29zM25 21A1 1 0 0 1 26 20H38A1 1 0 0 1 39 21V29A1 1 0 0 1 38 30H26A1 1 0 0 1 25 29zM44 21A1 1 0 0 1 45 20H57A1 1 0 0 1 58 21V29A1 1 0 0 1 57 30H45A1 1 0 0 1 44 29zM6 49A1 1 0 0 1 7 48H19A1 1 0 0 1 20 49V57A1 1 0 0 1 19 58H7A1 1 0 0 1 6 57zM25 49A1 1 0 0 1 26 48H38A1 1 0 0 1 39 49V57A1 1 0 0 1 38 58H26A1 1 0 0 1 25 57zM44 49A1 1 0 0 1 45 48H57A1 1 0 0 1 58 49V57A1 1 0 0 1 57 58H45A1 1 0 0 1 44 57zM6 43A1 1 0 0 0 7 44H19A1 1 0 0 0 20 43V35A1 1 0 0 0 19 34H7A1 1 0 0 0 6 35zM25 43A1 1 0 0 0 26 44H38A1 1 0 0 0 39 43V35A1 1 0 0 0 38 34H26A1 1 0 0 0 25 35zM44 43A1 1 0 0 0 45 44H57A1 1 0 0 0 58 43V35A1 1 0 0 0 57 34H45A1 1 0 0 0 44 35z" />
    <glyph glyph-name="draft-file"
      unicode="&#xE011;"
      horiz-adv-x="64" d=" M46 53H11C9.9 53 9 52.1 9 51V6C9 4.9 9.9 4 11 4H46C47.1 4 48 4.9 48 6V51C48 52.1 47.1 53 46 53zM45 7H12V50H45V7z M18 38H39V36H18V38z M18 30H39V28H18V30z M18 22H39V20H18V22z M53.5 60H17.5C16.7 60 16 59.3 16 58.5S16.7 57 17.5 57H52V12.5C52 11.7 52.7 11 53.5 11C54.3 11 55 11.7 55 12.5V58.5C55 59.3 54.3 60 53.5 60z" />
    <glyph glyph-name="edit-file"
      unicode="&#xE012;"
      horiz-adv-x="64" d=" M52 37V21H41C39.3 21 38 19.7 38 18V7H12V57H52V53L55 56V58C55 59.1 54.1 60 53 60H11C9.9 60 9 59.1 9 58V6C9 4.9 9.9 4 11 4H40L55 19V40L52 37zM40 8V18C40 18.5 40.4 19 40.9 19C40.9 19 41 19 41 19H51L40 8zM19.6 12.9C19.7 12.8 19.8 12.7 20 12.7C20.1 12.7 20.2 12.7 20.3 12.8C20.6 13 25.3 15.6 28 17.1L23.8 21.3C22.3 18.6 19.6 14 19.4 13.6L19.4 13.6C19.4 13.3 19.4 13.1 19.6 12.9zM61.8 50.8L58 54.6C57.8 54.8 57.6 54.9 57.4 54.9C57.2 54.9 57 54.8 56.9 54.7C56.9 54.7 26.5 24.5 25.1 23L30.1 18L30.1 18L61.9 49.7C62.1 50 62.1 50.5 61.8 50.8z" />
    <glyph glyph-name="error-outline"
      unicode="&#xE013;"
      horiz-adv-x="64" d=" M32 60A28 28 0 1 1 60 32A28 28 0 0 1 32 60zM32 7A25 25 0 1 0 57 32A25 25 0 0 0 32 7zM45.06 45.06A1.5 1.5 0 0 1 42.94 45.06L32 34.12L21.06 45.06A1.5 1.5 0 1 1 18.94 42.94L29.88 32L18.94 21.06A1.5 1.5 0 0 1 21.06 18.94L32 29.88L42.94 18.94A1.5 1.5 0 0 1 45.06 21.06L34.12 32L45.06 42.94A1.5 1.5 0 0 1 45.06 45.06z" />
    <glyph glyph-name="error"
      unicode="&#xE014;"
      horiz-adv-x="64.001" d=" M32.001 60C16.534 60 4.001 47.465 4.001 31.998C4.001 16.533 16.534 4 32.001 4C47.466 4 60.001 16.533 60.001 31.998C60.001 47.465 47.465 60 32.001 60zM45.061 21.06C45.647 20.474 45.647 19.525 45.061 18.939C44.768 18.646 44.384 18.5 44 18.5S43.232 18.646 42.939 18.939L32.001 29.878L21.061 18.939C20.768 18.646 20.384 18.5 20 18.5S19.232 18.646 18.939 18.939C18.353 19.525 18.353 20.474 18.939 21.06L29.879 32L18.94 42.939C18.354 43.525 18.354 44.474 18.94 45.06S20.475 45.646 21.061 45.06L32 34.121L42.94 45.06C43.526 45.646 44.475 45.646 45.061 45.06S45.647 43.525 45.061 42.939L34.122 32L45.061 21.06z" />
    <glyph glyph-name="euro"
      unicode="&#xE015;"
      horiz-adv-x="64" d=" M32 57A25 25 0 1 0 7 32A25 25 0 0 0 32 57M32 60A28 28 0 1 1 60 32A28 28 0 0 1 32 60zM32 52A20 20 0 1 0 12 32A20 20 0 0 0 32 52M32 54A22 22 0 1 1 54 32A22 22 0 0 1 32 54zM35.3 28.6L36.2 30.9H26.1V33.2H37.1L38 35.5H26.4C27.3 40.6 29.7 43.2 33.5 43.2A6.929999999999999 6.929999999999999 0 0 0 37.8 41.6C38.4 41.1 39 40.5 39.8 39.7L41 42.6A12.56 12.56 0 0 1 38.6 44.6A9.85 9.85 0 0 1 33.4 46A9.69 9.69 0 0 1 27.2 43.9A12.49 12.49 0 0 1 23.3 37.7A10.32 10.32 0 0 1 22.8 35.5H20.4L19.5 33.2H22.5V30.9H20.4L19.5 28.6H22.8A16.21 16.21 0 0 1 25.4 21.9A9.06 9.06 0 0 1 33.2 18.1A8.8 8.8 0 0 1 41.2 22.7L39.1 24.6A8.8 8.8 0 0 0 37.4 22.4A5.51 5.51 0 0 0 33.4 20.9Q29.35 20.9 27.4 25.1A11 11 0 0 0 26.3 28.6z" />
    <glyph glyph-name="facebook"
      unicode="&#xE016;"
      horiz-adv-x="64" d=" M36 6H25.2V32.2H19.8V41.2H25.2V46.6C25.2 54 28.3 58.4 37 58.4H44.2V49.4H39.7C36.3 49.4 36.1 48.1 36.1 45.8L36.1 41.3H44.3L43.3 32.3H36V6z" />
    <glyph glyph-name="family"
      unicode="&#xE017;"
      horiz-adv-x="64" d=" M47.91 23A14.12 14.12 0 0 0 62 8.89V6H59V8.89A11.109999999999998 11.109999999999998 0 0 1 47.91 20H42.35A10.24 10.24 0 0 1 42.92 23zM37 39V42.49A7.5 7.5 0 0 0 52 42.49V28H43V25H55V42.49A10.5 10.5 0 0 1 34 42.49V40A10.49 10.49 0 0 0 37 39zM5 6V15A11 11 0 0 0 16.06 26H22V29H16.06A14 14 0 0 1 2 15V6zM20.46 31.1A10.41 10.41 0 0 1 22.07 31.24A10.25 10.25 0 0 0 23.21 34.63A7.420000000000001 7.420000000000001 0 0 0 13 41.54V49.54A7.44 7.44 0 0 0 20.46 57A7.539999999999999 7.539999999999999 0 0 0 28 49.57V41.57A7.39 7.39 0 0 0 27.47 38.82A10.470000000000002 10.470000000000002 0 0 0 30.87 39.98A10.379999999999999 10.379999999999999 0 0 1 31 41.54V49.54A10.49 10.49 0 0 1 10 49.54V41.54A10.44 10.44 0 0 1 20.46 31.1zM18 2V2.37A8.61 8.61 0 0 0 26.6 11H38.4A8.61 8.61 0 0 0 47 2.4V2H50V2.37A11.61 11.61 0 0 1 38.41 14H26.6A11.61 11.61 0 0 1 15 2.39V2zM24 23.37V29.67A8.5 8.5 0 0 0 41 29.67V23.37A8.5 8.5 0 0 0 24 23.37zM27 23.37A5.5 5.5 0 0 1 38 23.37V29.67A5.5 5.5 0 0 1 27 29.67z" />
    <glyph glyph-name="headphone"
      unicode="&#xE018;"
      horiz-adv-x="64" d=" M60 32L60 32C60 47.46 47.46 60 32 60S4 47.46 4 32L4 13C4 11.9 4.9 11 6 11H14C15.1 11 16 11.9 16 13V30C16 31.1 15.1 32 14 32H7C7 45.79 18.22 57 32 57S57 45.79 57 32H50C48.9 32 48 31.1 48 30V13C48 11.9 48.9 11 50 11H58C59.1 11 60 11.9 60 13L60 32zM7 29H13V14H7V29zM57 14H51V29H57V14z" />
    <glyph glyph-name="house"
      unicode="&#xE019;"
      horiz-adv-x="64" d=" M61.1 33.1L32 62L2.9 33.1C2.3 32.5 2.3 31.6 2.8 31S4.3 30.4 4.9 30.9C4.9 30.9 5 30.9 5 31L32 58L58.9 30.9C59.5 30.3 60.4 30.3 61 30.8S61.7 32.4 61.1 33.1C61.1 33 61.1 33 61.1 33.1zM52 7H12V33.9L9 30.9V6C9 4.9 9.9 4 11 4H53C54.1 4 55 4.9 55 6V30.9L52 33.9V7z" />
    <glyph glyph-name="info"
      unicode="&#xE01A;"
      horiz-adv-x="64" d=" M60 32C60 47.5 47.5 60 32 60C16.5 60 4 47.5 4 32S16.5 4 32 4C47.5 4 60 16.5 60 32zM33.5 43H30.5V47H33.5V43zM33.5 17H30.5V38H33.5V17z" />
    <glyph glyph-name="instagram"
      unicode="&#xE01B;"
      horiz-adv-x="64" d=" M46.4 34.9H43.2C43.4 34 43.6 33 43.6 32C43.6 25.7 38.5 20.5 32.1 20.5C25.8 20.5 20.6 25.6 20.6 32C20.6 33 20.7 34 21 34.9H17.8V19.1C17.8 18.3 18.4 17.7 19.2 17.7H45C45.8 17.7 46.4 18.3 46.4 19.1V34.9zM46.4 44.9C46.4 45.7 45.8 46.3 45 46.3H40.7C39.9 46.3 39.3 45.7 39.3 44.9V40.6C39.3 39.8 39.9 39.2 40.7 39.2H45C45.8 39.2 46.4 39.8 46.4 40.6V44.9zM32 39.2C28 39.2 24.8 36 24.8 32C24.8 28 28 24.8 32 24.8S39.2 28 39.2 32C39.2 36 36 39.2 32 39.2M46.4 13.3H17.6C15.2 13.3 13.3 15.2 13.3 17.6V46.4C13.3 48.8 15.2 50.7 17.6 50.7H46.3C48.7 50.7 50.6 48.8 50.6 46.4V17.7C50.7 15.3 48.7 13.3 46.4 13.3" />
    <glyph glyph-name="invoice"
      unicode="&#xE01C;"
      horiz-adv-x="64.001" d=" M40.001 59.995V60L11.001 59.995C9.898 59.995 9.001 59.098 9.001 57.995V6C9.001 4.897 9.898 4 11.001 4H53.001C54.104 4 55.001 4.897 55.001 6V45L40.001 59.995zM40.001 55.753L50.756 45H41.001C40.45 45 40.001 45.448 40.001 46V55.753zM52.001 7H12.001V56.995H38.001V46C38.001 44.346 39.347 43 41.001 43H52.001V7zM18.003 19H46.003V21H18.003V19zM18.003 14H46.003V16H18.003V14zM24.186 30.938H26.13C26.315 29.912 26.58 29.024 26.925 28.274C28.137 25.64 30.051 24.323 32.669 24.323C34.192 24.323 35.526 24.736 36.671 25.561C36.974 25.78 37.361 26.112 37.833 26.557L36.217 28.211C35.897 27.925 35.649 27.715 35.472 27.58C34.731 27.033 33.91 26.76 33.01 26.76C32.059 26.76 31.289 27.004 30.7 27.491C30.228 27.887 29.829 28.468 29.501 29.233C29.291 29.721 29.122 30.289 28.996 30.937H33.856L34.563 32.768H28.781C28.773 32.97 28.768 33.16 28.768 33.335C28.768 33.588 28.772 33.798 28.781 33.967H35.017L35.724 35.798H28.995C29.239 36.984 29.618 37.923 30.131 38.613C30.804 39.513 31.785 39.964 33.073 39.964C33.889 39.964 34.664 39.761 35.396 39.358C35.774 39.156 36.237 38.815 36.785 38.335L37.719 40.771C37.281 41.091 36.902 41.339 36.583 41.517C35.489 42.105 34.277 42.4 32.947 42.4C30.481 42.4 28.604 41.297 27.317 39.093C26.753 38.117 26.358 37.018 26.13 35.798H24.88L24.186 33.967H25.941C25.932 33.732 25.928 33.542 25.928 33.399C25.928 33.189 25.932 32.978 25.941 32.768H24.88L24.186 30.938z" />
    <glyph glyph-name="laptop"
      unicode="&#xE01D;"
      horiz-adv-x="64.001" d=" M10.001 48H54.001V20H57.001V49C57.001 50.1 56.101 51 55.001 51H9.001C7.901 51 7.001 50.1 7.001 49V20H10.001V48z M2.001 18C2.001 14.686 4.687 12 8.001 12H56.001C59.315 12 62.001 14.686 62.001 18H2.001zM36.001 14H28.001C27.449 14 27.001 14.447 27.001 15S27.449 16 28.001 16H36.001C36.553 16 37.001 15.553 37.001 15S36.553 14 36.001 14z" />
    <glyph glyph-name="manager"
      unicode="&#xE01E;"
      horiz-adv-x="64" d=" M32 52C34.6 52 39 51 39 44V35.6C38.9 31.9 35.7 28.9 32 29C28.2 28.9 25.1 31.9 25 35.6V45.3C25.1 49.1 28.2 52.1 32 52M32 55C26.6 55.1 22.1 50.8 22 45.4V35.6C22.1 30.2 26.6 25.9 32 26C37.4 25.9 41.9 30.2 42 35.6V44C42 51.7 37.3 55 32 55zM44.6 23H19.9C13.8 23 9 18.1 9 12.1C9 12.1 9 12.1 9 12.1C9 12.1 9 12 9 12V9H55V11.9C55 18 50.8 23 44.6 23zM27.3 9.9L22.2 20H28.8L30.8 16.9L27.3 9.9zM36.8 9.9L33.3 17L35.3 20H41.9L36.8 9.9z" />
    <glyph glyph-name="meter"
      unicode="&#xE01F;"
      horiz-adv-x="64.001" d=" M32.001 60C16.542 59.947 3.95 47.367 4.001 31.91C4.056 16.471 16.578 4 32.001 4C47.467 4.051 60.052 16.631 60.001 32.094C59.946 47.527 47.424 60 32.001 60zM32.001 57C45.739 57 56.952 45.822 57.001 32.084C57.023 25.406 54.443 19.119 49.737 14.382C45.031 9.644 38.678 7.022 32.001 7C18.263 7 7.049 18.179 7.001 31.92C6.956 45.701 18.22 56.951 32.001 56.998V57zM48.501 31.995L51.501 32.005C51.487 36.074 50.23 39.85 48.098 42.976L45.924 40.802C47.537 38.251 48.49 35.236 48.501 31.995zM12.501 32H15.501C15.501 41.067 22.905 48.47 32.006 48.5H32.058C36.223 48.5 40.023 46.92 42.923 44.334L32.914 34.322C32.63 34.433 32.324 34.499 32.001 34.499C30.62 34.499 29.501 33.38 29.501 31.999C29.502 30.62 30.618 29.501 32 29.5C33.381 29.5 34.501 30.62 34.501 32.001C34.501 32.321 34.435 32.625 34.326 32.906L47.708 46.293C48.099 46.684 48.099 47.316 47.708 47.707C47.317 48.098 46.684 48.098 46.294 47.707L45.036 46.448C41.59 49.576 37.05 51.5 32.058 51.5H31.996C21.247 51.464 12.501 42.717 12.501 32z" />
    <glyph glyph-name="minus"
      unicode="&#xE020;"
      horiz-adv-x="64" d=" M56 36H8A4 4 0 1 1 8 28H56A4 4 0 0 1 56 36z" />
    <glyph glyph-name="network"
      unicode="&#xE021;"
      horiz-adv-x="64.001" d=" M19.001 22V12H9.001V22H19.001zM19.863 25H8.139C6.963 25 6.001 24.038 6.001 22.862V11.138C6.001 9.962 6.963 9 8.139 9H19.863C21.039 9 22.001 9.962 22.001 11.138V22.862C22.001 24.038 21.039 25 19.863 25L19.863 25zM55.001 22V12H45.001V22H55.001zM55.863 25H44.139C42.963 25 42.001 24.038 42.001 22.862V11.138C42.001 9.962 42.963 9 44.139 9H55.863C57.039 9 58.001 9.962 58.001 11.138V22.862C58.001 24.038 57.039 25 55.863 25L55.863 25zM45.109 26.999L39.01 37.19C38.646 37.085 38.269 37.011 37.871 37.011H36.786L42.909 26.78C43.311 26.911 43.732 27 44.177 27H45.109zM19.83 26.999C20.278 26.999 20.702 26.909 21.107 26.777L27.232 37.011H26.148C25.75 37.011 25.373 37.085 25.009 37.19L18.91 26.999H19.83zM40.001 18H24.001V16H40.001V18zM37.001 52V42H27.001V52H37.001zM37.863 55H26.139C24.963 55 24.001 54.038 24.001 52.862V41.138C24.001 39.962 24.963 39 26.139 39H37.863C39.039 39 40.001 39.962 40.001 41.138V52.862C40.001 54.038 39.039 55 37.863 55L37.863 55z" />
    <glyph glyph-name="overview"
      unicode="&#xE022;"
      horiz-adv-x="64.001" d=" M20.001 25H24.001V29H20.001V25zM20.001 35H24.001V39H20.001V35zM20.001 15H24.001V19H20.001V15zM28.001 36H44.001V38H28.001V36zM28.001 16H44.001V18H28.001V16zM28.001 26H44.001V28H28.001V26zM40 60H11.001C9.898 60 9.001 59.103 9.001 58V6C9.001 4.897 9.898 4 11.001 4H53.001C54.104 4 55.001 4.897 55.001 6V45L40 60zM40.001 55.757L50.759 45H41.001C40.45 45 40.001 45.448 40.001 46V55.757zM52.001 7H12.001V57H38.001V46C38.001 44.346 39.347 43 41.001 43H52.001V7z" />
    <glyph glyph-name="pdf"
      unicode="&#xE023;"
      horiz-adv-x="64" d=" M41 45H55L40 60V46C40 45.4 40.4 45 41 45zM23.9 33C23.4 33.2 22.9 33.3 22.4 33.3H20.8V29.3H22.5C23.1 29.2 23.6 29.4 24.1 29.8C24.5 30.2 24.7 30.8 24.7 31.4C24.7 32 24.4 32.6 23.9 33zM32.9 33.2C32.5 33.3 32.1 33.4 31.7 33.4H30.2V24.7H31.7C32.2 24.7 32.6 24.7 33.1 24.9C33.4 25 33.8 25.2 34 25.5C34.8 26.6 35.1 27.8 35 29.1C35.1 30.3 34.8 31.5 34 32.5C33.7 32.8 33.3 33 32.9 33.2L32.9 33.2zM38 46V60H11C9.9 60 9 59.1 9 58V6C9 4.9 9.9 4 11 4H53C54.1 4 55 4.9 55 6V43H41C39.3 43 38 44.3 38 46zM25.4 28.4C25.1 28.1 24.6 27.9 24.2 27.8C23.7 27.7 23.2 27.6 22.8 27.7H20.8V23H18.8V35H22.6C23.3 35 24 34.9 24.6 34.7C25.3 34.4 25.9 33.9 26.3 33.2C26.6 32.6 26.8 31.9 26.7 31.3C26.7 30.2 26.3 29.1 25.4 28.4zM35.1 23.9C34.6 23.5 34 23.2 33.4 23.1C33 23 32.5 23 32 23H28.2V35H31.9C33.2 35.1 34.6 34.6 35.5 33.7C36.6 32.4 37.1 30.8 37 29.1C37 26.8 36.4 25 35.1 23.9L35.1 23.9zM45.7 33.3H40.7V29.9H45.1V28.2H40.7V23H38.7V35H45.7L45.7 33.3z" />
    <glyph glyph-name="play"
      unicode="&#xE024;"
      horiz-adv-x="64" d=" M18 53L50 32L18 11z" />
    <glyph glyph-name="plus"
      unicode="&#xE025;"
      horiz-adv-x="64" d=" M56 36H36L36 56C36 58.2 34.2 60 32 60S28 58.2 28 56L28 36H8C5.8 36 4 34.2 4 32S5.8 28 8 28H28L28 8C28 5.8 29.8 4 32 4S36 5.8 36 8L36 28H56C58.2 28 60 29.8 60 32S58.2 36 56 36z" />
    <glyph glyph-name="prepaid"
      unicode="&#xE026;"
      horiz-adv-x="64" d=" M46 60H20C18.9 60 18 59.1 18 58V50.9C18.7 51 19.3 51 20 51C20.3 51 20.7 51 21 50.9V57H44.9L55 46.9V7H21V11.1C20.7 11.1 20.3 11 20 11C19.3 11 18.7 11 18 11.1V6C18 4.9 18.9 4 20 4H56C57.1 4 58 4.9 58 6V48L46 60zM43 14L43 21L42.5 21C42 21 39.9 21 37.3 21C37.1 20.7 36.9 20.3 36.7 20C39 20 41 20 42 20L42 14H34V16.8C33.7 16.5 33.3 16.2 33 15.9V14H30.5C29.2 13.2 27.9 12.6 26.5 12.1C26.6 12 26.8 12 27 12H49C50.1 12 51 12.9 51 14V35C51 36.1 50.1 37 49 37H39.1C39.3 36.3 39.5 35.7 39.6 35H42V29H43V35H49V29H39.9C39.9 28.7 39.8 28.3 39.8 28H49V14H43zM25.9 25.1L24.5 26.3C24.1 25.6 23.7 25.1 23.4 24.9C22.7 24.3 21.8 23.9 20.8 23.9C19.1 23.9 17.8 24.8 17 26.6C16.7 27.3 16.5 28.1 16.3 28.8H22L22.6 30.3H16.1C16.1 30.6 16.1 30.8 16.1 31.1C16.1 31.4 16.1 31.6 16.1 31.8H23.2L23.8 33.3H16.3C16.9 36.6 18.4 38.2 20.9 38.2C21.9 38.2 22.8 37.9 23.6 37.2C24 36.9 24.4 36.5 24.9 36L25.7 37.9C25.1 38.5 24.6 38.9 24.2 39.2C23.2 39.8 22.1 40.1 20.9 40.1C19.4 40.1 18.1 39.7 17 38.8C15.8 37.8 15 36.5 14.5 34.8C14.4 34.4 14.3 33.9 14.2 33.4H12.7L12 31.9H14V31.8L14 31C14 30.9 14 30.7 14 30.4H12.6L12 28.9H14.1C14.4 27.2 14.9 25.7 15.8 24.6C17 23 18.6 22.2 20.8 22.2C23 22.2 24.7 23.1 25.9 25.1zM38 31C38 40.9 29.9 49 20 49C10.1 49 2 40.9 2 31C2 21.1 10.1 13 20 13C29.9 13 38 21.1 38 31zM5 31C5 39.3 11.7 46 20 46C28.3 46 35 39.3 35 31C35 22.7 28.3 16 20 16C11.7 16 5 22.7 5 31z" />
    <glyph glyph-name="price-tag"
      unicode="&#xE027;"
      horiz-adv-x="64" d=" M56.5 57C56.7 57 57 56.8 57 56.6C57 56.6 57 56.5 57 56.5V37.6L24.5 5.1L5.2 24.5L37.6 57H56.5M56.5 60H36.3L2.8 26.4C1.8 25.4 1.7 23.7 2.7 22.7L2.8 22.6L22.6 2.8C23.6 1.8 25.3 1.8 26.3 2.8C26.3 2.8 26.3 2.8 26.3 2.8L26.3 2.8L60 36.3V56.4C60 58.4 58.5 60 56.6 60C56.6 60 56.6 60 56.6 60H56.5zM55 52C55 53.7 53.7 55 52 55S49 53.7 49 52S50.3 49 52 49C53.6 49 54.9 50.3 55 51.9V52zM32.5 19.6L32.3 22.2C31.5 21.9 30.7 21.8 29.8 21.9C28.5 22 27.2 22.5 26.2 23.5C24.5 25.2 24.1 27.3 25.1 29.9C25.5 30.9 26 31.8 26.6 32.8L32.2 27.2L34.3 28L28 34.5L28.8 35.3L29.5 36L36.5 29L38.6 29.9L31.2 37.3C35.1 40 38.1 40.1 40.6 37.6C41.6 36.6 42.2 35.3 42.3 33.9C42.4 33.1 42.4 32.3 42.4 31.4L45.1 32.5C45.1 33.4 45 34.4 44.9 35.3C44.5 36.9 43.7 38.3 42.5 39.4C41.1 40.8 39.3 41.8 37.4 42C35.2 42.2 32.9 41.7 31 40.5C30.5 40.2 29.9 39.8 29.3 39.4L27.8 40.9L25.6 40L27.6 38L27.5 37.9L26.7 37.1L26.1 36.5L24.7 37.9L22.7 37L24.8 35C23.4 33.3 22.6 31.2 22.2 29C21.8 26.3 22.7 23.5 24.8 21.7C26.8 19.6 29.8 18.9 32.5 19.6z" />
    <glyph glyph-name="reload"
      unicode="&#xE028;"
      horiz-adv-x="64" d=" M31.52 12A1.5 1.5 0 0 1 30 13.5H30A18.5 18.5 0 1 0 48.47 33H38L50 21L62 33H51.47A21.49 21.49 0 1 1 30 10.5A1.5 1.5 0 0 1 31.52 12z" />
    <glyph glyph-name="renew"
      unicode="&#xE029;"
      horiz-adv-x="64" d=" M47 29.9A17.37 17.37 0 0 0 45 30V15H19V52H30.78A17 17 0 0 0 31.55 54H19V55.89A1.38 1.38 0 0 0 19.93 57.14A41.2 41.2 0 0 0 32 59C33 59 34 59 34.94 58.89A17 17 0 0 0 38.33 61.53A43.14 43.14 0 0 1 19 60A4.48 4.48 0 0 1 16 55.89V8.11A4.48 4.48 0 0 1 19 4A43 43 0 0 1 32 2A44 44 0 0 1 45 4A4.48 4.48 0 0 1 48 8.11V29.93zM45 8.11A1.38 1.38 0 0 0 44.07 6.86A41.2 41.2 0 0 0 32 5A39.9 39.9 0 0 0 20 6.85A1.39 1.39 0 0 0 19 8.16V13H45zM47 59.9A13 13 0 1 0 34 46.9A13 13 0 0 0 47 59.9M47 61.9A15 15 0 1 1 62 46.9A15 15 0 0 1 47 61.9zM34 8A1.08 1.08 0 0 0 33 7H31A1.08 1.08 0 0 0 30 8V10A1.08 1.08 0 0 0 31 11H33A1.08 1.08 0 0 0 34 10zM41.69 44.82H40L40.56 46.21H41.56C41.56 46.45 41.56 46.67 41.56 46.84S41.56 47.31 41.56 47.61H40L40.54 49H41.69A11.75 11.75 0 0 0 42 50.31A7.46 7.46 0 0 0 44.26 54A5.28 5.28 0 0 0 47.83 55.24A6 6 0 0 0 50.2 54.8A7.720000000000001 7.720000000000001 0 0 0 52.37 53.27L51.64 51.57A9.3 9.3 0 0 1 49.64 53.2A3.75 3.75 0 0 1 47.83 53.63Q44.46 53.63 43.58 48.97H50.58L50.01 47.59H43.48C43.48 47.34 43.48 47.1 43.48 46.88S43.48 46.44 43.48 46.19H49.48L49 44.81H43.62A8.38 8.38 0 0 1 44.23 42.7A3.7800000000000002 3.7800000000000002 0 0 1 47.8 40.17A3.4800000000000004 3.4800000000000004 0 0 1 49.71 40.66A5.680000000000001 5.680000000000001 0 0 1 51.27 42.41L52.53 41.27A5.31 5.31 0 0 0 47.75 38.55Q43.84 38.55 42.27 42.48A10.1 10.1 0 0 0 41.69 44.81z" />
    <glyph glyph-name="search"
      unicode="&#xE02A;"
      horiz-adv-x="64" d=" M26.9 57C31.1 57 35.2 55.7 38.7 53.2C47.7 46.7 49.7 34.2 43.2 25.3C42 23.6 40.4 22 38.7 20.8H38.6H38.5C35.1 18.3 31.1 17 26.9 17C15.9 17 6.9 26 6.9 37S15.9 57 26.9 57M3.9 37C3.9 24.3 14.2 14 26.9 14C31.7 14 36.4 15.5 40.3 18.4C42.4 19.8 44.1 21.6 45.6 23.6C48.4 27.5 50 32.2 50 37C50 49.7 39.7 60 27 60C14.2 60 3.9 49.7 3.9 37zM42.3 17.4L54.8 4.9C54.8 4.8 54.9 4.8 54.9 4.8C56.1 3.7 58 3.7 59.1 4.9C60.2 6.1 60.2 8 59 9.1L46.6 21.6C45.3 20 43.9 18.6 42.3 17.4z" />
    <glyph glyph-name="settings"
      unicode="&#xE02B;"
      horiz-adv-x="64.001" d=" M52.002 32C52.002 33.214 51.875 34.397 51.668 35.553L58.447 41.197C57.273 44.575 55.472 47.655 53.182 50.303L44.916 47.258C43.111 48.787 41.029 49.989 38.76 50.805L37.26 59.5C35.557 59.824 33.801 60 32.002 60C30.203 60 28.447 59.824 26.742 59.5L25.244 50.805C22.974 49.989 20.892 48.787 19.088 47.258L10.82 50.303C8.529 47.655 6.728 44.574 5.555 41.197L12.334 35.553C12.127 34.398 12.002 33.214 12.002 32C12.002 30.787 12.127 29.604 12.334 28.448L5.555 22.802C6.729 19.424 8.531 16.344 10.82 13.696L19.088 16.742C20.893 15.212 22.975 14.012 25.244 13.195L26.742 4.5C28.447 4.175 30.203 4 32.002 4C33.801 4 35.557 4.175 37.26 4.5L38.76 13.195C41.03 14.011 43.112 15.212 44.916 16.742L53.182 13.696C55.473 16.344 57.274 19.425 58.447 22.802L51.668 28.446C51.875 29.604 52.002 30.785 52.002 32zM54.863 21.883C54.141 20.25 53.247 18.704 52.188 17.26L45.953 19.558L44.311 20.163L42.976 19.031C41.44 17.728 39.68 16.715 37.745 16.019L36.101 15.428L35.804 13.706L34.672 7.145C33.782 7.049 32.889 7 32.002 7C31.115 7 30.222 7.049 29.331 7.145L28.201 13.705L27.904 15.427L26.26 16.018C24.325 16.714 22.565 17.728 21.028 19.03L19.693 20.162L18.051 19.557L11.815 17.259C10.756 18.705 9.861 20.251 9.139 21.883L14.254 26.143L15.595 27.259L15.288 28.977C15.096 30.048 15.003 31.037 15.003 32C15.003 32.964 15.096 33.954 15.288 35.024L15.596 36.742L14.255 37.859L9.14 42.117C9.862 43.75 10.757 45.296 11.815 46.741L18.052 44.444L19.694 43.839L21.029 44.97C22.567 46.274 24.328 47.287 26.261 47.983L27.905 48.574L28.202 50.296L29.332 56.856C30.224 56.951 31.117 57 32.002 57C32.888 57 33.78 56.951 34.672 56.855L35.804 50.295L36.101 48.573L37.745 47.982C39.679 47.287 41.439 46.273 42.977 44.969L44.312 43.838L45.954 44.443L52.189 46.74C53.248 45.295 54.142 43.749 54.864 42.116L49.75 37.858L48.409 36.741L48.717 35.023C48.91 33.945 49.004 32.956 49.004 31.999C49.004 31.044 48.91 30.054 48.717 28.973L48.41 27.256L49.751 26.14L54.863 21.883zM32.002 44.515C25.09 44.515 19.484 38.911 19.484 31.997C19.484 25.086 25.089 19.481 32.002 19.481C38.916 19.481 44.52 25.085 44.52 31.997C44.52 38.911 38.916 44.515 32.002 44.515zM32.002 22.481C26.754 22.481 22.484 26.75 22.484 31.997C22.484 37.245 26.754 41.515 32.002 41.515C37.25 41.515 41.52 37.245 41.52 31.997C41.52 26.75 37.25 22.481 32.002 22.481z" />
    <glyph glyph-name="sim-card-smartphone"
      unicode="&#xE02C;"
      horiz-adv-x="64" d=" M48.3 37.6H33.5V29.3H48.3V16.3H42.7V22.8H33.5V14.5H48.3C49.3 14.5 50.1 15.3 50.1 16.3V35.8C50.1 36.8 49.3 37.6 48.3 37.6zM41.8 16.3H34.4V21.9H41.8V16.3zM41.8 30.2H34.4V35.8H41.8V30.2zM48.3 30.2H42.7V35.8H48.3V30.2zM56.5 47.8V9C56.5 8 55.7 7.1 54.7 7.1H33.5V9.9H53.7V46.6L44.2 56.1H22.3V50.5H19.5V57C19.5 58 20.3 58.9 21.3 58.9H45.4L56.5 47.8zM29.8 47C26.6 48 23.4 48.5 20 48.5C16.7 48.5 13.4 48 10.2 47C8 46.2 8 43.6 8 43.6V8.1C8 6.7 8.9 5.5 10.3 5C13.5 4 16.7 3.5 20.1 3.5C23.4 3.5 26.7 4 29.9 5C31.2 5.5 32.1 6.7 32.2 8.1V43.6C32 43.6 32 46.2 29.8 47zM29.8 8C29.8 7.6 29.5 7.2 29.1 7C26.2 6.1 23.2 5.7 20.1 5.7C17 5.7 14 6.2 11 7C10.6 7.2 10.3 7.5 10.2 8V11.7H29.7V8zM29.8 13.2H10.3V41H29.8V13.2zM29.8 42.5H10.3V43.6S10.4 44.6 11.1 44.9C14 45.8 17 46.2 20.1 46.3C23.2 46.3 26.2 45.8 29.2 44.9C29.8 44.7 29.9 43.6 29.9 43.6V42.5zM19.3 7.2H20.8C21.2 7.2 21.5 7.5 21.6 8V9.5C21.6 9.9 21.3 10.2 20.8 10.3H19.3C18.9 10.3 18.6 10 18.5 9.5V8C18.5 7.6 18.8 7.2 19.3 7.2z" />
    <glyph glyph-name="sim-card"
      unicode="&#xE02D;"
      horiz-adv-x="64" d=" M21 37C19.9 37 19 36.1 19 35V14C19 12.9 19.9 12 21 12H43C44.1 12 45 12.9 45 14V35C45 36.1 44.1 37 43 37H21zM36 35V29H28V35H36zM21 35H27V29H21V35zM21 14V20C22.5 20 24.7 20 27 20V14H21zM28 14V20C31.4 20 34.7 20 36 20V14H28zM43 14H37V21C37 21 25.3 21 21 21V28H43V14zM43 35V29H37V35H43z M39.9 60H13.9C12.8 60 11.9 59.1 11.9 58V6C11.9 4.9 12.8 4 13.9 4H49.9C51 4 51.9 4.9 51.9 6V48L39.9 60zM48.9 7H14.9V57H38.6L48.9 46.7V7z" />
    <glyph glyph-name="smartphone"
      unicode="&#xE02E;"
      horiz-adv-x="64" d=" M45 60A45.12 45.12 0 0 1 32 62A44.10000000000001 44.10000000000001 0 0 1 19 60C16 59 16 55.5 16 55.5V8.2A4.47 4.47 0 0 1 19 4.1A43.12 43.12 0 0 1 32 2.1A44.10000000000001 44.10000000000001 0 0 1 45 4.1A4.47 4.47 0 0 1 48 8.2V55.5S48 59 45 60zM45 8.1A1.41 1.41 0 0 0 44.1 6.8A41.37 41.37 0 0 0 32.1 5A43.68 43.68 0 0 0 20 6.8A1.67 1.67 0 0 0 19 8.1V13H45zM45 15H19V52H45zM45 54H19V55.5S19.1 56.9 20 57.2A41.38 41.38 0 0 0 32 59A44.28000000000001 44.28000000000001 0 0 0 44.1 57.2C44.9 56.9 45 55.5 45 55.5zM31 7H33A1.08 1.08 0 0 1 34 8V10A1.08 1.08 0 0 1 33 11H31A1.08 1.08 0 0 1 30 10V8A1.08 1.08 0 0 1 31 7z" />
    <glyph glyph-name="star-solid"
      unicode="&#xE02F;"
      horiz-adv-x="64" d=" M61.29 39A1.5 1.5 0 0 1 59.86 40H39.67L33.43 59A1.5 1.5 0 0 1 30.58 59L24.33 40H4.14A1.5 1.5 0 0 1 3.26 37.29L19.6 25.17L13.36 6A1.5 1.5 0 0 1 15.67 4.32L32 16.16L48.34 4.29A1.5 1.5 0 0 1 50.65 6L44.41 25.17L60.74 37.29A1.5 1.5 0 0 1 61.29 39z" />
    <glyph glyph-name="star"
      unicode="&#xE030;"
      horiz-adv-x="64" d=" M32 53.7L36.82 39.06L37.5 37H55.32L42.62 27.58L40.89 26.3L41.56 24.25L46.37 9.43L33.77 18.59L32 19.87L30.24 18.59L17.64 9.43L22.45 24.25L23.12 26.3L21.39 27.58L8.68 37H26.51L27.19 39.06L32 53.7zM32 60A1.5 1.5 0 0 1 30.57 59L24.33 40H4.14A1.5 1.5 0 0 1 3.26 37.29L19.6 25.17L13.36 6A1.5 1.5 0 0 1 15.67 4.32L32 16.16L48.34 4.29A1.5 1.5 0 0 1 50.65 6L44.41 25.17L60.74 37.29A1.5 1.5 0 0 1 59.86 40H39.67L33.43 59A1.5 1.5 0 0 1 32 60z" />
    <glyph glyph-name="store"
      unicode="&#xE031;"
      horiz-adv-x="64" d=" M60 53C60 54.1 59.1 55 58 55H6C4.9 55 4 54.1 4 53V52H60V53z M2 50V36H62V50H2zM13 41H11V43H13V41zM12.6 44.4C12.6 45.2 12.3 46 11.8 46.7C11.3 47.2 10.6 47.5 9.8 47.5V40.1C9.8 39.6 9.9 39.2 10.1 38.8C10.3 38.6 10.6 38.5 10.9 38.5H11.5V38H6.5V38.6H7.1C7.4 38.6 7.7 38.7 7.9 38.9C8.2 39.3 8.3 39.7 8.2 40.2V47.6C7.5 47.6 6.7 47.3 6.2 46.8C5.7 46.1 5.4 45.3 5.4 44.5L4.9 44.6L5 48H13L13.1 44.5L12.6 44.4zM5 41V43H7V41H5zM19 41H17V43H19V41zM25 41H23V43H25V41z M57 12L45 12L45 34L43 34L43 12L43 12L21 12L21 12L21 34L19 34L19 12L7 12L7 34L4 34L4 9L60 9L60 34L57 34z" />
    <glyph glyph-name="tablet"
      unicode="&#xE032;"
      horiz-adv-x="64" d=" M60 50.2C59.9 51.2 59 52 58 52H6C4.9 52 4 51.1 4 50V14C4 12.9 4.9 12 6 12H58C58.9 12 59.7 12.6 59.9 13.5H60V50.2zM53 15H7V49H53V15zM58 31C58 30.4 57.6 30 57 30H55C54.4 30 54 30.4 54 31V33C54 33.6 54.4 34 55 34H57C57.6 34 58 33.6 58 33V31z" />
    <glyph glyph-name="telekom"
      unicode="&#xE033;"
      horiz-adv-x="64" d=" M10.6 23.5V34.1H21V23.6H10.6zM42.5 23.5V34.1H53V23.6H42.5zM52.5 58H11.1L10.6 39.7L13.3 39.2C13.8 44.6 15.2 48.6 17.5 51.2C20 54 23.3 55.4 27.6 55.5V17.1C27.6 13.7 27.1 11.6 26.2 10.6C25.4 9.7 24 9.2 22 9C21.4 9 20.4 8.9 19 8.9V6H44.6V8.9C43.2 8.9 42.2 8.9 41.6 9C39.6 9.2 38.2 9.7 37.4 10.6C36.4 11.6 36 13.8 36 17.1V55.5C40.3 55.4 43.7 53.9 46.1 51.2C48.4 48.6 49.8 44.6 50.3 39.2L53 39.7L52.5 58z" />
    <glyph glyph-name="trash"
      unicode="&#xE034;"
      horiz-adv-x="64" d=" M53.5 58H39V59C39 60.1 38.1 61 37 61H27C25.9 61 25 60.1 25 59V58H10.5C9.7 58 9 57.3 9 56.5S9.7 55 10.5 55H53.5C54.3 55 55 55.7 55 56.5S54.3 58 53.5 58L53.5 58zM13.3 6C13.3 4.9 14.2 4 15.3 4H48.6C49.7 4 50.6 4.9 50.6 6L52.2 52H11.7L13.3 6zM39.5 41.5C39.5 42.3 40.2 43 41 43S42.5 42.3 42.5 41.5V14.5C42.5 13.7 41.8 13 41 13S39.5 13.7 39.5 14.5V41.5zM30.5 41.4C30.5 42.2 31.2 42.9 32 42.9S33.5 42.2 33.5 41.4V14.5C33.5 13.7 32.8 13 32 13S30.5 13.7 30.5 14.5V41.4zM21.5 41.5C21.5 42.3 22.2 43 23 43S24.5 42.3 24.5 41.5V14.5C24.5 13.7 23.8 13 23 13S21.5 13.7 21.5 14.5V41.5z" />
    <glyph glyph-name="twitter"
      unicode="&#xE035;"
      horiz-adv-x="64" d=" M53.9 45.6C52.3 44.9 50.6 44.4 48.7 44.2C50.6 45.3 52 47.1 52.6 49.2C50.9 48.2 48.9 47.4 46.9 47C45.3 48.7 42.9 49.8 40.4 49.8C35.4 49.8 31.4 45.8 31.4 40.8C31.4 40.1 31.5 39.4 31.6 38.8C24.1 39.2 17.5 42.7 13.1 48.2C12.3 46.9 11.9 45.3 11.9 43.7C11.9 40.6 13.5 37.8 15.9 36.2C14.4 36.2 13 36.6 11.8 37.3C11.8 37.3 11.8 37.2 11.8 37.2C11.8 32.9 14.9 29.2 19 28.4C18.2 28.2 17.5 28.1 16.6 28.1C16 28.1 15.5 28.2 14.9 28.3C16 24.7 19.4 22.1 23.3 22.1C20.2 19.7 16.4 18.3 12.2 18.3C11.5 18.3 10.8 18.3 10.1 18.4C14.1 15.9 18.8 14.4 23.8 14.4C40.3 14.4 49.3 28.1 49.3 39.9C49.3 40.3 49.3 40.7 49.3 41.1C51.1 42.2 52.7 43.8 53.9 45.6z" />
    <glyph glyph-name="unlimited"
      unicode="&#xE036;"
      horiz-adv-x="64" d=" M18.4 18.1C17.2 18.1 16.1 18.6 15.2 19.4L5.7 28.9C4 30.6 4 33.5 5.7 35.2L15.2 44.7C16.9 46.4 19.8 46.4 21.5 44.7L26.8 39.4L24.7 37.3L19.4 42.6C18.8 43.2 17.9 43.2 17.3 42.6L7.9 33C7.3 32.4 7.3 31.5 7.9 30.9L17.4 21.4C17.9 20.9 18.9 20.8 19.5 21.4L42.6 44.5C43.4 45.3 44.6 45.8 45.8 45.8S48.1 45.3 49 44.5L58.5 35C60.2 33.3 60.2 30.4 58.5 28.7L49 19.2C47.3 17.5 44.4 17.5 42.7 19.2L37.5 24.4L39.6 26.5L44.8 21.3C45.4 20.7 46.3 20.7 46.9 21.3L56.4 30.8C57 31.4 57 32.3 56.4 32.9L46.9 42.4C46.4 42.9 45.4 43 44.8 42.4L21.5 19.4C20.7 18.5 19.6 18.1 18.4 18.1z" />
    <glyph glyph-name="user"
      unicode="&#xE037;"
      horiz-adv-x="64" d=" M6 6V10.09A10.87 10.87 0 0 0 16.87 21H47.13A10.87 10.87 0 0 0 58 10.09V6H55V10.09A7.880000000000001 7.880000000000001 0 0 1 47.13 18H16.87A7.880000000000001 7.880000000000001 0 0 1 9 10.09V6zM20 37V46A12.15 12.15 0 0 0 32 58A12.2 12.2 0 0 0 44 46V37A12.2 12.2 0 0 0 32 25A12.15 12.15 0 0 0 20 37zM23 37A9 9 0 1 1 41 37V46A9 9 0 1 1 23 46z" />
    <glyph glyph-name="warning"
      unicode="&#xE038;"
      horiz-adv-x="64.001" d=" M32.001 60C16.538 60 4.001 47.464 4.001 32S16.538 4 32.001 4C47.466 4 60.001 16.536 60.001 32S47.466 60 32.001 60zM33.501 17H30.501V21H33.501V17zM33.501 26H30.501V47H33.501V26z" />
  </font>
</defs>
</svg>
