<?xml version="1.0" encoding="utf-8"?>
<!-- Generator: Adobe Illustrator 22.0.1, SVG Export Plug-In . SVG Version: 6.00 Build 0)  -->
<svg version="1.1" id="Icons" xmlns="http://www.w3.org/2000/svg" xmlns:xlink="http://www.w3.org/1999/xlink" x="0px" y="0px"
	 viewBox="0 0 64 64" style="enable-background:new 0 0 64 64;" xml:space="preserve">
	<path id="Combined-Shape" d="M32,5C16.5,5,4,17.5,4,33s12.5,28,28,28s28-12.5,28-28c0-7.4-2.9-14.5-8.2-19.8S39.4,5,32,5z M32,58
		C18.2,58,7,46.8,7,33S18.2,8,32,8s25,11.2,25,25c0,6.6-2.6,13-7.3,17.7S38.6,58,32,58z M47.5,31.5h-14v-14c0-0.8-0.7-1.5-1.5-1.5
		s-1.5,0.7-1.5,1.5v14h-14c-0.8,0-1.5,0.7-1.5,1.5s0.7,1.5,1.5,1.5h14v14c0,0.8,0.7,1.5,1.5,1.5s1.5-0.7,1.5-1.5v-14h14
		c0.8,0,1.5-0.7,1.5-1.5S48.3,31.5,47.5,31.5z"/>
</svg>
