<svg xmlns="http://www.w3.org/2000/svg" viewBox="0 0 64 64"><path d="M51 52c0 2.2-1.8 4-4 4s-4-1.8-4-4 1.8-4 4-4 4 1.8 4 4zm-26-4c-2.2 0-4 1.8-4 4s1.8 4 4 4 4-1.8 4-4-1.8-4-4-4zm36-33l-4.3 19c-.3 1.1-1.3 2-2.4 2H21.5l1 6.3c.1.4.4.7.8.7h30.1c.8 0 1.5.7 1.5 1.5s-.6 1.5-1.4 1.5H23.3c-1.9 0-3.5-1.4-3.8-3.3l-1.3-8.5c0-.1-.1-.2-.1-.3l-1.8-11.6-1.6-10.7c0-.3-.4-.6-.7-.6H3.5C2.7 11 2 10.3 2 9.5S2.7 8 3.5 8h10.4c1.9 0 3.5 1.4 3.8 3.3L18 13h41.5c.8 0 1.6.6 1.6 1.5 0 .1 0 .3-.1.5zm-42.5 1l.6 4h37.8l.9-4H18.5zm9.5 6v11h9V22h-9zm11 11h9V22h-9v11zm-13 0V22h-6.6l1.7 11H26zm30.4-11H50v11h3.9l2.5-11z"/></svg>