<?xml version="1.0" encoding="utf-8"?>
<!-- Generator: Adobe Illustrator 20.1.0, SVG Export Plug-In . SVG Version: 6.00 Build 0)  -->
<svg version="1.1" id="Layer_1" xmlns="http://www.w3.org/2000/svg" xmlns:xlink="http://www.w3.org/1999/xlink" x="0px" y="0px"
	 viewBox="0 0 64 64" style="enable-background:new 0 0 64 64;" xml:space="preserve">
<title>chat_outline</title>
<path d="M58,4H17c-1.1,0-2,0.9-2,2v30c0,1.1,0.9,2,2,2h10v8H7V18h6v-3H6c-1.1,0-2,0.9-2,2v30c0,1.1,0.9,2,2,2h21l11,11V49h9
	c1.1,0,2-0.9,2-2v-7h-3v6H35v6.8l-5.9-5.9L38,38h20c1.1,0,2-0.9,2-2V6C60,4.9,59.1,4,58,4z M57,35H36.8L30,41.8V35H18V7h39V35z"/>
</svg>
