<?xml version="1.0" encoding="utf-8"?>
<!-- Generator: Adobe Illustrator 19.1.0, SVG Export Plug-In . SVG Version: 6.00 Build 0)  -->
<svg version="1.1" id="Icons" xmlns="http://www.w3.org/2000/svg" xmlns:xlink="http://www.w3.org/1999/xlink" x="0px" y="0px"
	 width="64.001px" height="64px" viewBox="0 0 64.001 64" enable-background="new 0 0 64.001 64" xml:space="preserve">
<g>
	<path d="M32,4C16.533,4,4.001,16.535,4.001,32.002C4.001,47.467,16.533,60,32,60c15.465,0,28.001-12.533,28.001-27.998
		C60.001,16.535,47.465,4,32,4z M48.061,23.06l-20,20C27.768,43.354,27.384,43.5,27,43.5c-0.384,0-0.768-0.146-1.061-0.439l-9-9
		c-0.586-0.586-0.586-1.535,0-2.121c0.586-0.586,1.535-0.586,2.121,0L27,39.879L45.939,20.94c0.586-0.586,1.535-0.586,2.121,0
		C48.646,21.525,48.646,22.475,48.061,23.06z"/>
</g>
</svg>
