<?xml version="1.0" encoding="utf-8"?>
<!-- Generator: Adobe Illustrator 19.1.0, SVG Export Plug-In . SVG Version: 6.00 Build 0)  -->
<svg version="1.1" id="Icons" xmlns="http://www.w3.org/2000/svg" xmlns:xlink="http://www.w3.org/1999/xlink" x="0px" y="0px"
	 width="64.001px" height="64px" viewBox="0 0 64.001 64" enable-background="new 0 0 64.001 64" xml:space="preserve">
<path d="M32,4C16.534,4,4.001,16.535,4.001,32.002C4.001,47.467,16.534,60,32,60c15.465,0,28.001-12.533,28.001-27.998
	C60.001,16.535,47.465,4,32,4z M32,57C18.215,57,7.001,45.786,7.001,32.002C7.001,18.216,18.215,7,32,7s25.001,11.216,25.001,25.002
	C57.001,45.786,45.785,57,32,57z M45.94,20.94L27,39.879l-7.939-7.939c-0.586-0.586-1.535-0.586-2.121,0
	c-0.586,0.586-0.586,1.535,0,2.121l9,9C26.233,43.354,26.617,43.5,27,43.5s0.768-0.146,1.061-0.439l20-20
	c0.586-0.586,0.586-1.535,0-2.121C47.475,20.354,46.526,20.354,45.94,20.94z"/>
</svg>
