<?xml version="1.0" encoding="utf-8"?>
<!-- Generator: Adobe Illustrator 18.1.0, SVG Export Plug-In . SVG Version: 6.00 Build 0)  -->
<!DOCTYPE svg PUBLIC "-//W3C//DTD SVG 1.1//EN" "http://www.w3.org/Graphics/SVG/1.1/DTD/svg11.dtd">
<svg version="1.1" id="Icons" xmlns="http://www.w3.org/2000/svg" xmlns:xlink="http://www.w3.org/1999/xlink" x="0px" y="0px"
	 width="64px" height="64px" viewBox="0 0 64 64" enable-background="new 0 0 64 64" xml:space="preserve">
<path d="M39.9,3.9h-29c-1.1,0-2,0.9-2,2v52c0,1.1,0.9,2,2,2h42c1.1,0,2-0.9,2-2v-39L39.9,3.9z M39.1,7.3l12.4,12.4H40.3
	c-0.7,0-1.2-0.6-1.2-1.2V7.3z M51.9,56.9h-40v-50h25.2v11.6c0,1.8,1.5,3.2,3.2,3.2h11.6V56.9z M24.1,36.3c-0.6-0.6-1.5-0.6-2.1,0
	c-0.6,0.6-0.6,1.5,0,2.1l7.1,7.1l15.1-15.1c0.6-0.6,0.6-1.5,0-2.1c-0.6-0.6-1.5-0.6-2.1,0L29,41.2L24.1,36.3z"/>
</svg>
