<?xml version="1.0" encoding="utf-8"?>
<!-- Generator: Adobe Illustrator 19.1.0, SVG Export Plug-In . SVG Version: 6.00 Build 0)  -->
<svg version="1.1" id="Icons" xmlns="http://www.w3.org/2000/svg" xmlns:xlink="http://www.w3.org/1999/xlink" x="0px" y="0px"
	 width="64.001px" height="64px" viewBox="0 0 64.001 64" enable-background="new 0 0 64.001 64" xml:space="preserve">
<path d="M52.061,49.939L34.122,32L52.06,14.061c0.586-0.586,0.586-1.535,0-2.121c-0.586-0.586-1.536-0.586-2.121,0L32.001,29.879
	L14.061,11.939c-0.586-0.586-1.535-0.586-2.121,0c-0.586,0.586-0.586,1.535,0,2.121L29.88,32L11.942,49.939
	c-0.586,0.586-0.586,1.535,0,2.121c0.293,0.293,0.677,0.439,1.061,0.439c0.384,0,0.768-0.146,1.06-0.439l17.938-17.939L49.94,52.061
	c0.293,0.293,0.677,0.439,1.061,0.439c0.384,0,0.768-0.146,1.06-0.439C52.647,51.475,52.647,50.525,52.061,49.939z"/>
</svg>
