<svg xmlns="http://www.w3.org/2000/svg" width="64" height="64" viewBox="0 0 64 64">
  <title>delivery_outline</title>
  <path d="M30.18,41.67a8.5,8.5,0,1,0,4.5,11.15A8.47,8.47,0,0,0,30.18,41.67ZM31,51.26a4.5,4.5,0,1,1-2.39-5.9A4.5,4.5,0,0,1,31,51.26Zm-28.77-41L11,14l1.56-3.68L3.8,6.57ZM26.87,39h0a10.41,10.41,0,0,1,2.88.41l-9.33-23.1a7.49,7.49,0,0,0-3.61-3.67l-2.61-1.11L13,14.29l2.61,1.11a4.58,4.58,0,0,1,2,2L26.35,39Zm34.39-6.31L51.63,8.85A2,2,0,0,0,49,7.75L25.19,17.38a2,2,0,0,0-1.1,2.6L32.42,40.6a10.39,10.39,0,0,1,3.88,4.32h0l23.83-9.63A2,2,0,0,0,61.25,32.68ZM36.12,41.76l-8.88-22,9-3.64,8.88,22Zm13-5.23-8.88-22,9-3.64,8.88,22Zm6.48,2.8L37,46.83a10.4,10.4,0,0,1,.34,3.1L56.68,42.1a1.5,1.5,0,0,0-1.12-2.78Z"/>
</svg>
