<svg xmlns="http://www.w3.org/2000/svg" width="64" height="64" viewBox="0 0 64 64">
  <title>dial-pad_solid</title>
  <path d="M25,49a1,1,0,0,1,1-1H38a1,1,0,0,1,1,1v8a1,1,0,0,1-1,1H26a1,1,0,0,1-1-1ZM6,43a1,1,0,0,0,1,1H19a1,1,0,0,0,1-1V35a1,1,0,0,0-1-1H7a1,1,0,0,0-1,1Zm19,0a1,1,0,0,0,1,1H38a1,1,0,0,0,1-1V35a1,1,0,0,0-1-1H26a1,1,0,0,0-1,1Zm19,0a1,1,0,0,0,1,1H57a1,1,0,0,0,1-1V35a1,1,0,0,0-1-1H45a1,1,0,0,0-1,1ZM6,15a1,1,0,0,0,1,1H19a1,1,0,0,0,1-1V7a1,1,0,0,0-1-1H7A1,1,0,0,0,6,7Zm19,0a1,1,0,0,0,1,1H38a1,1,0,0,0,1-1V7a1,1,0,0,0-1-1H26a1,1,0,0,0-1,1Zm19,0a1,1,0,0,0,1,1H57a1,1,0,0,0,1-1V7a1,1,0,0,0-1-1H45a1,1,0,0,0-1,1ZM6,21a1,1,0,0,1,1-1H19a1,1,0,0,1,1,1v8a1,1,0,0,1-1,1H7a1,1,0,0,1-1-1Zm19,0a1,1,0,0,1,1-1H38a1,1,0,0,1,1,1v8a1,1,0,0,1-1,1H26a1,1,0,0,1-1-1Zm19,0a1,1,0,0,1,1-1H57a1,1,0,0,1,1,1v8a1,1,0,0,1-1,1H45a1,1,0,0,1-1-1Z"/>
</svg>
