<?xml version="1.0" encoding="utf-8"?>
<!-- Generator: Adobe Illustrator 20.1.0, SVG Export Plug-In . SVG Version: 6.00 Build 0)  -->
<svg version="1.1" id="Icons" xmlns="http://www.w3.org/2000/svg" xmlns:xlink="http://www.w3.org/1999/xlink" x="0px" y="0px"
	 width="64px" height="64px" viewBox="0 0 64 64" enable-background="new 0 0 64 64" xml:space="preserve">
<g>
	<path d="M46,11H11c-1.1,0-2,0.9-2,2v45c0,1.1,0.9,2,2,2h35c1.1,0,2-0.9,2-2V13C48,11.9,47.1,11,46,11z M45,57H12V14h33V57z"/>
	<rect x="18" y="26" width="21" height="2"/>
	<rect x="18" y="34" width="21" height="2"/>
	<rect x="18" y="42" width="21" height="2"/>
	<path d="M53.5,4h-36C16.7,4,16,4.7,16,5.5S16.7,7,17.5,7H52v44.5c0,0.8,0.7,1.5,1.5,1.5c0.8,0,1.5-0.7,1.5-1.5v-46
		C55,4.7,54.3,4,53.5,4z"/>
</g>
</svg>
