<?xml version="1.0" encoding="utf-8"?>
<!-- Generator: Adobe Illustrator 20.1.0, SVG Export Plug-In . SVG Version: 6.00 Build 0)  -->
<svg version="1.1" id="Layer_1" xmlns="http://www.w3.org/2000/svg" xmlns:xlink="http://www.w3.org/1999/xlink" x="0px" y="0px"
	 viewBox="0 0 64 64" style="enable-background:new 0 0 64 64;" xml:space="preserve">
<title>edit-file_outline</title>
<path d="M52,27v16H41c-1.7,0-3,1.3-3,3v11H12V7h40v4l3-3V6c0-1.1-0.9-2-2-2H11C9.9,4,9,4.9,9,6v52c0,1.1,0.9,2,2,2h29l15-15V24
	L52,27z M40,56V46c0-0.5,0.4-1,0.9-1c0,0,0.1,0,0.1,0h10L40,56z M19.6,51.1c0.1,0.1,0.2,0.2,0.4,0.2c0.1,0,0.2,0,0.3-0.1
	c0.3-0.2,5-2.8,7.7-4.3l-4.2-4.2c-1.5,2.7-4.2,7.3-4.4,7.7l0,0C19.4,50.7,19.4,50.9,19.6,51.1z M61.8,13.2L58,9.4
	c-0.2-0.2-0.4-0.3-0.6-0.3c-0.2,0-0.4,0.1-0.5,0.2c0,0-30.4,30.2-31.8,31.7l5,5l0,0l31.8-31.7C62.1,14,62.1,13.5,61.8,13.2z"/>
</svg>
