<svg xmlns="http://www.w3.org/2000/svg" width="64" height="64" viewBox="0 0 64 64">
  <title>euro</title>
  <path d="M32,7A25,25,0,1,1,7,32,25,25,0,0,1,32,7m0-3A28,28,0,1,0,60,32,28,28,0,0,0,32,4Zm0,8A20,20,0,1,1,12,32,20,20,0,0,1,32,12m0-2A22,22,0,1,0,54,32,22,22,0,0,0,32,10Zm3.3,25.4.9-2.3H26.1V30.8h11l.9-2.3H26.4c.9-5.1,3.3-7.7,7.1-7.7a6.93,6.93,0,0,1,4.3,1.6c.6.5,1.2,1.1,2,1.9L41,21.4a12.56,12.56,0,0,0-2.4-2A9.85,9.85,0,0,0,33.4,18a9.69,9.69,0,0,0-6.2,2.1,12.49,12.49,0,0,0-3.9,6.2,10.32,10.32,0,0,0-.5,2.2H20.4l-.9,2.3h3v2.3H20.4l-.9,2.3h3.3a16.21,16.21,0,0,0,2.6,6.7,9.06,9.06,0,0,0,7.8,3.8,8.8,8.8,0,0,0,8-4.6l-2.1-1.9a8.8,8.8,0,0,1-1.7,2.2,5.51,5.51,0,0,1-4,1.5q-4.05,0-6-4.2a11,11,0,0,1-1.1-3.5Z"/>
</svg>
