<?xml version="1.0" encoding="utf-8"?>
<!-- Generator: Adobe Illustrator 20.1.0, SVG Export Plug-In . SVG Version: 6.00 Build 0)  -->
<svg version="1.1" id="Icons" xmlns="http://www.w3.org/2000/svg" xmlns:xlink="http://www.w3.org/1999/xlink" x="0px" y="0px"
	 width="64px" height="64px" viewBox="0 0 64 64" enable-background="new 0 0 64 64" xml:space="preserve">
<path d="M60,32L60,32C60,16.54,47.46,4,32,4S4,16.54,4,32l0,19c0,1.1,0.9,2,2,2h8c1.1,0,2-0.9,2-2V34c0-1.1-0.9-2-2-2H7
	C7,18.21,18.22,7,32,7s25,11.21,25,25h-7c-1.1,0-2,0.9-2,2v17c0,1.1,0.9,2,2,2h8c1.1,0,2-0.9,2-2L60,32z M7,35h6v15H7V35z M57,50h-6
	V35h6V50z"/>
</svg>
