<?xml version="1.0" encoding="utf-8"?>
<!-- Generator: Adobe Illustrator 20.1.0, SVG Export Plug-In . SVG Version: 6.00 Build 0)  -->
<svg version="1.1" id="Layer_1" xmlns="http://www.w3.org/2000/svg" xmlns:xlink="http://www.w3.org/1999/xlink" x="0px" y="0px"
	 viewBox="0 0 64 64" style="enable-background:new 0 0 64 64;" xml:space="preserve">
<style type="text/css">
	.st0{fill-rule:evenodd;clip-rule:evenodd;}
</style>
<title>photo-camera</title>
<path class="st0" d="M46.4,29.1h-3.2c0.2,0.9,0.4,1.9,0.4,2.9c0,6.3-5.1,11.5-11.5,11.5c-6.3,0-11.5-5.1-11.5-11.5
	c0-1,0.1-2,0.4-2.9h-3.2v15.8c0,0.8,0.6,1.4,1.4,1.4h25.8c0.8,0,1.4-0.6,1.4-1.4V29.1z M46.4,19.1c0-0.8-0.6-1.4-1.4-1.4h-4.3
	c-0.8,0-1.4,0.6-1.4,1.4v4.3c0,0.8,0.6,1.4,1.4,1.4h4.3c0.8,0,1.4-0.6,1.4-1.4V19.1z M32,24.8c-4,0-7.2,3.2-7.2,7.2
	c0,4,3.2,7.2,7.2,7.2s7.2-3.2,7.2-7.2C39.2,28,36,24.8,32,24.8 M46.4,50.7H17.6c-2.4,0-4.3-1.9-4.3-4.3V17.6c0-2.4,1.9-4.3,4.3-4.3
	h28.7c2.4,0,4.3,1.9,4.3,4.3v28.7C50.7,48.7,48.7,50.7,46.4,50.7"/>
</svg>
