<?xml version="1.0" encoding="utf-8"?>
<!-- Generator: Adobe Illustrator 19.1.0, SVG Export Plug-In . SVG Version: 6.00 Build 0)  -->
<svg version="1.1" id="Icons" xmlns="http://www.w3.org/2000/svg" xmlns:xlink="http://www.w3.org/1999/xlink" x="0px" y="0px"
	 width="64.001px" height="64px" viewBox="0 0 64.001 64" enable-background="new 0 0 64.001 64" xml:space="preserve">
<path d="M40.001,4.005V4l-29,0.005c-1.103,0-2,0.897-2,2V58c0,1.103,0.897,2,2,2h42c1.103,0,2-0.897,2-2V19L40.001,4.005z
	 M40.001,8.247L50.756,19h-9.755c-0.551,0-1-0.448-1-1V8.247z M52.001,57h-40V7.005h26V18c0,1.654,1.346,3,3,3h11V57z M18.003,45h28
	v-2h-28V45z M18.003,50h28v-2h-28V50z M24.186,33.062h1.944c0.185,1.026,0.45,1.914,0.795,2.664
	c1.212,2.634,3.126,3.951,5.744,3.951c1.523,0,2.857-0.413,4.002-1.238c0.303-0.219,0.69-0.551,1.162-0.996l-1.616-1.654
	c-0.32,0.286-0.568,0.496-0.745,0.631c-0.741,0.547-1.562,0.82-2.462,0.82c-0.951,0-1.721-0.244-2.31-0.731
	c-0.472-0.396-0.871-0.977-1.199-1.742c-0.21-0.488-0.379-1.056-0.505-1.704h4.86l0.707-1.831h-5.782
	c-0.008-0.202-0.013-0.392-0.013-0.567c0-0.253,0.004-0.463,0.013-0.632h6.236l0.707-1.831h-6.729
	c0.244-1.186,0.623-2.125,1.136-2.815c0.673-0.9,1.654-1.351,2.942-1.351c0.816,0,1.591,0.203,2.323,0.606
	c0.378,0.202,0.841,0.543,1.389,1.023l0.934-2.436c-0.438-0.32-0.817-0.568-1.136-0.746c-1.094-0.588-2.306-0.883-3.636-0.883
	c-2.466,0-4.343,1.103-5.63,3.307c-0.564,0.976-0.959,2.075-1.187,3.295h-1.25l-0.694,1.831h1.755
	c-0.009,0.235-0.013,0.425-0.013,0.568c0,0.21,0.004,0.421,0.013,0.631h-1.061L24.186,33.062z"/>
</svg>
