<?xml version="1.0" encoding="utf-8"?>
<!-- Generator: Adobe Illustrator 20.1.0, SVG Export Plug-In . SVG Version: 6.00 Build 0)  -->
<svg version="1.1" id="Icons" xmlns="http://www.w3.org/2000/svg" xmlns:xlink="http://www.w3.org/1999/xlink" x="0px" y="0px"
	 width="64.001px" height="64px" viewBox="0 0 64.001 64" enable-background="new 0 0 64.001 64" xml:space="preserve">
<g>
	<path d="M10.001,16h44v28h3V15c0-1.1-0.9-2-2-2h-46c-1.1,0-2,0.9-2,2v29h3V16z"/>
	<path d="M2.001,46c0,3.314,2.686,6,6,6h48c3.314,0,6-2.686,6-6H2.001z M36.001,50h-8c-0.552,0-1-0.447-1-1s0.448-1,1-1h8
		c0.552,0,1,0.447,1,1S36.553,50,36.001,50z"/>
</g>
</svg>
