<svg xmlns="http://www.w3.org/2000/svg" width="64" height="64"><path d="M2.7 10.5c0-1.9.7-3.4 2-4.7C6 4.6 7.7 4 9.8 4c2.1 0 3.8.6 5 1.8 1.3 1.2 2 2.9 2 4.9 0 1.8-.6 3.3-1.9 4.5-1.3 1.2-3.1 1.9-5.2 1.9s-3.8-.6-5-1.9-2-2.8-2-4.7zM3.4 60V22.2H16V60H3.4zM23 60h12.6V38.9c0-1.3.2-2.3.5-3.1.5-1.3 1.3-2.4 2.4-3.3 1.1-.9 2.4-1.3 4-1.3 4.2 0 6.3 2.8 6.3 8.5V60h12.6V38.3c0-5.6-1.3-9.8-4-12.7-2.6-2.9-6.1-4.3-10.5-4.3-4.9 0-8.7 2.1-11.4 6.3v.1h-.1l.1-.1v-5.4H23c.1 1.2.1 5 .1 11.3 0 6.3-.1 15.1-.1 26.5z"/></svg>