<?xml version="1.0" encoding="utf-8"?>
<!-- Generator: Adobe Illustrator 19.1.0, SVG Export Plug-In . SVG Version: 6.00 Build 0)  -->
<svg version="1.1" id="Icons" xmlns="http://www.w3.org/2000/svg" xmlns:xlink="http://www.w3.org/1999/xlink" x="0px" y="0px"
	 width="64.001px" height="64px" viewBox="0 0 64.001 64" enable-background="new 0 0 64.001 64" xml:space="preserve">
<path d="M32.001,4c-15.459,0.053-28.051,12.633-28,28.09C4.056,47.529,16.578,60,32.001,60c15.466-0.051,28.051-12.631,28-28.094
	C59.946,16.473,47.424,4,32.001,4z M32.001,7c13.738,0,24.951,11.178,25,24.916c0.022,6.678-2.558,12.965-7.264,17.702
	c-4.706,4.738-11.059,7.36-17.736,7.382c-13.738,0-24.952-11.179-25-24.92c-0.045-13.781,11.219-25.031,25-25.078V7z M48.501,32.005
	l3-0.01c-0.014-4.069-1.271-7.845-3.403-10.971l-2.174,2.174C47.537,25.749,48.49,28.764,48.501,32.005z M12.501,32h3
	c0-9.067,7.404-16.47,16.505-16.5h0.052c4.165,0,7.965,1.58,10.865,4.166L32.914,29.678c-0.284-0.111-0.59-0.177-0.913-0.177
	c-1.381,0-2.5,1.119-2.5,2.5C29.502,33.38,30.618,34.499,32,34.5c1.381,0,2.501-1.12,2.501-2.501c0-0.32-0.066-0.624-0.175-0.905
	l13.382-13.387c0.391-0.391,0.391-1.023,0-1.414c-0.391-0.391-1.024-0.391-1.414,0l-1.258,1.259
	C41.59,14.424,37.05,12.5,32.058,12.5h-0.062C21.247,12.536,12.501,21.283,12.501,32z"/>
</svg>
