<?xml version="1.0" encoding="utf-8"?>
<!-- Generator: Adobe Illustrator 19.1.0, SVG Export Plug-In . SVG Version: 6.00 Build 0)  -->
<svg version="1.1" id="Icons" xmlns="http://www.w3.org/2000/svg" xmlns:xlink="http://www.w3.org/1999/xlink" x="0px" y="0px"
	 width="64.001px" height="64px" viewBox="0 0 64.001 64" enable-background="new 0 0 64.001 64" xml:space="preserve">
<path d="M20.001,39h4v-4h-4V39z M20.001,29h4v-4h-4V29z M20.001,49h4v-4h-4V49z M28.001,28h16v-2h-16V28z M28.001,48h16v-2h-16V48z
	 M28.001,38h16v-2h-16V38z M40,4H11.001c-1.103,0-2,0.897-2,2v52c0,1.103,0.897,2,2,2h42c1.103,0,2-0.897,2-2V19L40,4z
	 M40.001,8.243L50.759,19h-9.758c-0.551,0-1-0.448-1-1V8.243z M52.001,57h-40V7h26v11c0,1.654,1.346,3,3,3h11V57z"/>
</svg>
