<?xml version="1.0" encoding="utf-8"?>
<!-- Generator: Adobe Illustrator 20.1.0, SVG Export Plug-In . SVG Version: 6.00 Build 0)  -->
<svg version="1.1" id="Layer_1" xmlns="http://www.w3.org/2000/svg" xmlns:xlink="http://www.w3.org/1999/xlink" x="0px" y="0px"
	 viewBox="0 0 64 64" style="enable-background:new 0 0 64 64;" xml:space="preserve">
<title>pdf-file_solid</title>
<path d="M41,19h14L40,4v14C40,18.6,40.4,19,41,19z M23.9,31c-0.5-0.2-1-0.3-1.5-0.3h-1.6v4h1.7c0.6,0.1,1.1-0.1,1.6-0.5
	c0.4-0.4,0.6-1,0.6-1.6C24.7,32,24.4,31.4,23.9,31z M32.9,30.8c-0.4-0.1-0.8-0.2-1.2-0.2h-1.5v8.7h1.5c0.5,0,0.9,0,1.4-0.2
	c0.3-0.1,0.7-0.3,0.9-0.6c0.8-1.1,1.1-2.3,1-3.6c0.1-1.2-0.2-2.4-1-3.4C33.7,31.2,33.3,31,32.9,30.8L32.9,30.8z M38,18V4H11
	C9.9,4,9,4.9,9,6v52c0,1.1,0.9,2,2,2h42c1.1,0,2-0.9,2-2V21H41C39.3,21,38,19.7,38,18z M25.4,35.6c-0.3,0.3-0.8,0.5-1.2,0.6
	c-0.5,0.1-1,0.2-1.4,0.1h-2V41h-2V29h3.8c0.7,0,1.4,0.1,2,0.3c0.7,0.3,1.3,0.8,1.7,1.5c0.3,0.6,0.5,1.3,0.4,1.9
	C26.7,33.8,26.3,34.9,25.4,35.6z M35.1,40.1c-0.5,0.4-1.1,0.7-1.7,0.8C33,41,32.5,41,32,41h-3.8V29h3.7c1.3-0.1,2.7,0.4,3.6,1.3
	c1.1,1.3,1.6,2.9,1.5,4.6C37,37.2,36.4,39,35.1,40.1L35.1,40.1z M45.7,30.7h-5v3.4h4.4v1.7h-4.4V41h-2V29h7L45.7,30.7z"/>
</svg>
