<?xml version="1.0" encoding="utf-8"?>
<!-- Generator: Adobe Illustrator 18.1.0, SVG Export Plug-In . SVG Version: 6.00 Build 0)  -->
<!DOCTYPE svg PUBLIC "-//W3C//DTD SVG 1.1//EN" "http://www.w3.org/Graphics/SVG/1.1/DTD/svg11.dtd">
<svg version="1.1" id="Icons" xmlns="http://www.w3.org/2000/svg" xmlns:xlink="http://www.w3.org/1999/xlink" x="0px" y="0px"
	 width="64px" height="64px" viewBox="0 0 64 64" enable-background="new 0 0 64 64" xml:space="preserve">
<path d="M46,4H20c-1.1,0-2,0.9-2,2v7.1c0.7-0.1,1.3-0.1,2-0.1c0.3,0,0.7,0,1,0.1V7h23.9L55,17.1V57H21v-4.1c-0.3,0-0.7,0.1-1,0.1
	c-0.7,0-1.3,0-2-0.1V58c0,1.1,0.9,2,2,2h36c1.1,0,2-0.9,2-2V16L46,4z M43,50l0-7l-0.5,0c-0.5,0-2.6,0-5.2,0c-0.2,0.3-0.4,0.7-0.6,1
	c2.3,0,4.3,0,5.3,0l0,6h-8v-2.8c-0.3,0.3-0.7,0.6-1,0.9V50h-2.5c-1.3,0.8-2.6,1.4-4,1.9C26.6,52,26.8,52,27,52h22c1.1,0,2-0.9,2-2
	V29c0-1.1-0.9-2-2-2h-9.9c0.2,0.7,0.4,1.3,0.5,2H42v6h1v-6h6v6h-9.1c0,0.3-0.1,0.7-0.1,1H49v14H43z M25.9,38.9l-1.4-1.2
	c-0.4,0.7-0.8,1.2-1.1,1.4c-0.7,0.6-1.6,1-2.6,1c-1.7,0-3-0.9-3.8-2.7c-0.3-0.7-0.5-1.5-0.7-2.2h5.7l0.6-1.5h-6.5c0-0.3,0-0.5,0-0.8
	c0-0.3,0-0.5,0-0.7h7.1l0.6-1.5h-7.5c0.6-3.3,2.1-4.9,4.6-4.9c1,0,1.9,0.3,2.7,1c0.4,0.3,0.8,0.7,1.3,1.2l0.8-1.9
	c-0.6-0.6-1.1-1-1.5-1.3c-1-0.6-2.1-0.9-3.3-0.9c-1.5,0-2.8,0.4-3.9,1.3c-1.2,1-2,2.3-2.5,4c-0.1,0.4-0.2,0.9-0.3,1.4h-1.5L12,32.1
	h2v0.1l0,0.8c0,0.1,0,0.3,0,0.6h-1.4L12,35.1h2.1c0.3,1.7,0.8,3.2,1.7,4.3c1.2,1.6,2.8,2.4,5,2.4C23,41.8,24.7,40.9,25.9,38.9z
	 M38,33c0-9.9-8.1-18-18-18c-9.9,0-18,8.1-18,18c0,9.9,8.1,18,18,18C29.9,51,38,42.9,38,33z M5,33c0-8.3,6.7-15,15-15
	c8.3,0,15,6.7,15,15c0,8.3-6.7,15-15,15C11.7,48,5,41.3,5,33z"/>
</svg>
