<?xml version="1.0" encoding="utf-8"?>
<!-- Generator: Adobe Illustrator 20.1.0, SVG Export Plug-In . SVG Version: 6.00 Build 0)  -->
<svg version="1.1" id="Layer_1" xmlns="http://www.w3.org/2000/svg" xmlns:xlink="http://www.w3.org/1999/xlink" x="0px" y="0px"
	 viewBox="0 0 64 64" style="enable-background:new 0 0 64 64;" xml:space="preserve">
<path d="M56.5,7C56.7,7,57,7.2,57,7.4c0,0,0,0.1,0,0.1v18.9L24.5,58.9L5.2,39.5L37.6,7H56.5 M56.5,4H36.3L2.8,37.6
	c-1,1-1.1,2.7-0.1,3.7l0.1,0.1l19.8,19.8c1,1,2.7,1,3.7,0c0,0,0,0,0,0l0,0L60,27.7V7.6C60,5.6,58.5,4,56.6,4c0,0,0,0,0,0H56.5z
	 M55,12c0-1.7-1.3-3-3-3s-3,1.3-3,3s1.3,3,3,3c1.6,0,2.9-1.3,3-2.9V12z M32.5,44.4l-0.2-2.6c-0.8,0.3-1.6,0.4-2.5,0.3
	c-1.3-0.1-2.6-0.6-3.6-1.6c-1.7-1.7-2.1-3.8-1.1-6.4c0.4-1,0.9-1.9,1.5-2.9l5.6,5.6l2.1-0.8L28,29.5l0.8-0.8l0.7-0.7l7,7l2.1-0.9
	l-7.4-7.4c3.9-2.7,6.9-2.8,9.4-0.3c1,1,1.6,2.3,1.7,3.7c0.1,0.8,0.1,1.6,0.1,2.5l2.7-1.1c0-0.9-0.1-1.9-0.2-2.8
	c-0.4-1.6-1.2-3-2.4-4.1c-1.4-1.4-3.2-2.4-5.1-2.6c-2.2-0.2-4.5,0.3-6.4,1.5c-0.5,0.3-1.1,0.7-1.7,1.1l-1.5-1.5L25.6,24l2,2
	l-0.1,0.1l-0.8,0.8l-0.6,0.6l-1.4-1.4L22.7,27l2.1,2c-1.4,1.7-2.2,3.8-2.6,6c-0.4,2.7,0.5,5.5,2.6,7.3
	C26.8,44.4,29.8,45.1,32.5,44.4z"/>
</svg>
