<svg xmlns="http://www.w3.org/2000/svg" width="64" height="64" viewBox="0 0 64 64">
  <title>handyankauf-v3</title>
  <path d="M47,34.1A17.37,17.37,0,0,1,45,34V49H19V12H30.78a17,17,0,0,1,.77-2H19V8.11a1.38,1.38,0,0,1,.93-1.25A41.2,41.2,0,0,1,32,5c1,0,2,0,2.94.11a17,17,0,0,1,3.39-2.64A43.14,43.14,0,0,0,19,4a4.48,4.48,0,0,0-3,4.11V55.89A4.48,4.48,0,0,0,19,60a43,43,0,0,0,13,2,44,44,0,0,0,13-2,4.48,4.48,0,0,0,3-4.11V34.07ZM45,55.89a1.38,1.38,0,0,1-.93,1.25A41.2,41.2,0,0,1,32,59a39.9,39.9,0,0,1-12-1.85,1.39,1.39,0,0,1-1-1.31V51H45ZM47,4.1a13,13,0,1,1-13,13,13,13,0,0,1,13-13m0-2a15,15,0,1,0,15,15,15,15,0,0,0-15-15ZM34,56a1.08,1.08,0,0,1-1,1H31a1.08,1.08,0,0,1-1-1V54a1.08,1.08,0,0,1,1-1h2a1.08,1.08,0,0,1,1,1Zm7.69-36.82H40l.56-1.39h1c0-.24,0-.46,0-.63s0-.47,0-.77H40L40.54,15h1.15A11.75,11.75,0,0,1,42,13.69,7.46,7.46,0,0,1,44.26,10a5.28,5.28,0,0,1,3.57-1.24,6,6,0,0,1,2.37.44,7.72,7.72,0,0,1,2.17,1.53l-.73,1.7a9.3,9.3,0,0,0-2-1.63,3.75,3.75,0,0,0-1.81-.43q-3.37,0-4.25,4.66h7l-.57,1.38H43.48c0,.25,0,.49,0,.71s0,.44,0,.69h6L49,19.19H43.62a8.38,8.38,0,0,0,.61,2.11,3.78,3.78,0,0,0,3.57,2.53,3.48,3.48,0,0,0,1.91-.49,5.68,5.68,0,0,0,1.56-1.75l1.26,1.14a5.31,5.31,0,0,1-4.78,2.72q-3.91,0-5.48-3.93A10.1,10.1,0,0,1,41.69,19.19Z"/>
</svg>
