<?xml version="1.0" encoding="utf-8"?>
<!-- Generator: Adobe Illustrator 20.1.0, SVG Export Plug-In . SVG Version: 6.00 Build 0)  -->
<svg version="1.1" id="Layer_1" xmlns="http://www.w3.org/2000/svg" xmlns:xlink="http://www.w3.org/1999/xlink" x="0px" y="0px"
	 viewBox="0 0 64 64" style="enable-background:new 0 0 64 64;" xml:space="preserve">
<title>search</title>
<path d="M26.9,7c4.2,0,8.3,1.3,11.8,3.8c9,6.5,11,19,4.5,27.9c-1.2,1.7-2.8,3.3-4.5,4.5h-0.1h-0.1c-3.4,2.5-7.4,3.8-11.6,3.8
	c-11,0-20-9-20-20S15.9,7,26.9,7 M3.9,27c0,12.7,10.3,23,23,23c4.8,0,9.5-1.5,13.4-4.4c2.1-1.4,3.8-3.2,5.3-5.2
	C48.4,36.5,50,31.8,50,27c0-12.7-10.3-23-23-23C14.2,4,3.9,14.3,3.9,27z M42.3,46.6l12.5,12.5c0,0.1,0.1,0.1,0.1,0.1
	c1.2,1.1,3.1,1.1,4.2-0.1c1.1-1.2,1.1-3.1-0.1-4.2L46.6,42.4C45.3,44,43.9,45.4,42.3,46.6z"/>
</svg>
