<svg xmlns="http://www.w3.org/2000/svg" width="64" height="64"><path fill="none" d="M0 0h64v64H0z"/><path d="M55 55.07V58h-3v-2.93c0-4.69-3.1-8.07-7.37-8.07H19.88A7.9 7.9 0 0 0 12 54.9V58H9v-2.93A10.91 10.91 0 0 1 19.75 44h24.89C50.76 44 55 48.94 55 55.07zM32 38a7.17 7.17 0 0 1-5-2h-3.77A10.06 10.06 0 0 0 32 41a9.82 9.82 0 0 0 10-9.6v-9.77A9.82 9.82 0 0 0 32 12a9.82 9.82 0 0 0-10 9.62V30h3v-8.4a6.83 6.83 0 0 1 7-6.6 6.83 6.83 0 0 1 7 6.62v9.78a6.83 6.83 0 0 1-7 6.6zm-15-6h1.3a4 4 0 0 0 3.44 2h6.45a3 3 0 1 0 0-2h-6.45A2 2 0 0 1 20 31V21h-2a14 14 0 1 1 28 0h-2v11h3a2 2 0 0 0 2-2v-9a17 17 0 1 0-34 0v9a2 2 0 0 0 2 2z"/></svg>