<?xml version="1.0" encoding="utf-8"?>
<!-- Generator: Adobe Illustrator 19.1.0, SVG Export Plug-In . SVG Version: 6.00 Build 0)  -->
<svg version="1.1" id="Icons" xmlns="http://www.w3.org/2000/svg" xmlns:xlink="http://www.w3.org/1999/xlink" x="0px" y="0px"
	 width="64.001px" height="64px" viewBox="0 0 64.001 64" enable-background="new 0 0 64.001 64" xml:space="preserve">
<path d="M52.002,32c0-1.214-0.127-2.397-0.334-3.553l6.779-5.644c-1.174-3.378-2.975-6.458-5.265-9.106l-8.266,3.045
	c-1.805-1.529-3.887-2.731-6.156-3.547L37.26,4.5C35.557,4.176,33.801,4,32.002,4c-1.799,0-3.555,0.176-5.26,0.5l-1.498,8.695
	c-2.27,0.816-4.352,2.018-6.156,3.547l-8.268-3.045c-2.291,2.648-4.092,5.729-5.265,9.106l6.779,5.644
	c-0.207,1.155-0.332,2.339-0.332,3.553c0,1.213,0.125,2.396,0.332,3.552l-6.779,5.646c1.174,3.378,2.976,6.458,5.265,9.106
	l8.268-3.046c1.805,1.53,3.887,2.73,6.156,3.547l1.498,8.695c1.705,0.325,3.461,0.5,5.26,0.5c1.799,0,3.555-0.175,5.258-0.5
	l1.5-8.695c2.27-0.816,4.352-2.017,6.156-3.547l8.266,3.046c2.291-2.648,4.092-5.729,5.265-9.106l-6.779-5.644
	C51.875,34.396,52.002,33.215,52.002,32z M54.863,42.117c-0.722,1.633-1.616,3.179-2.675,4.623l-6.235-2.298l-1.642-0.605
	l-1.335,1.132c-1.536,1.303-3.296,2.316-5.231,3.012l-1.644,0.591l-0.297,1.722l-1.132,6.561C33.782,56.951,32.889,57,32.002,57
	c-0.887,0-1.78-0.049-2.671-0.145l-1.13-6.56l-0.297-1.722l-1.644-0.591c-1.935-0.696-3.695-1.71-5.232-3.012l-1.335-1.132
	l-1.642,0.605l-6.236,2.298c-1.059-1.446-1.954-2.992-2.676-4.624l5.115-4.26l1.341-1.116l-0.307-1.718
	c-0.192-1.071-0.285-2.06-0.285-3.023c0-0.964,0.093-1.954,0.285-3.024l0.308-1.718l-1.341-1.117l-5.115-4.258
	c0.722-1.633,1.617-3.179,2.675-4.624l6.237,2.297l1.642,0.605l1.335-1.131c1.538-1.304,3.299-2.317,5.232-3.013l1.644-0.591
	l0.297-1.722l1.13-6.56C30.224,7.049,31.117,7,32.002,7c0.886,0,1.778,0.049,2.67,0.145l1.132,6.56l0.297,1.722l1.644,0.591
	c1.934,0.695,3.694,1.709,5.232,3.013l1.335,1.131l1.642-0.605l6.235-2.297c1.059,1.445,1.953,2.991,2.675,4.624l-5.114,4.258
	l-1.341,1.117l0.308,1.718c0.193,1.078,0.287,2.067,0.287,3.024c0,0.955-0.094,1.945-0.287,3.026l-0.307,1.717l1.341,1.116
	L54.863,42.117z M32.002,19.485c-6.912,0-12.518,5.604-12.518,12.518c0,6.911,5.605,12.516,12.518,12.516
	c6.914,0,12.518-5.604,12.518-12.516C44.52,25.089,38.916,19.485,32.002,19.485z M32.002,41.519c-5.248,0-9.518-4.269-9.518-9.516
	c0-5.248,4.27-9.518,9.518-9.518c5.248,0,9.518,4.27,9.518,9.518C41.52,37.25,37.25,41.519,32.002,41.519z"/>
</svg>
