<svg xmlns="http://www.w3.org/2000/svg" width="64" height="64"><path d="M48.3 26.4H33.5v8.3h14.8v13h-5.6v-6.5h-9.2v8.3h14.8c1 0 1.8-.8 1.8-1.8V28.2c0-1-.8-1.8-1.8-1.8zm-6.5 21.3h-7.4v-5.6h7.4v5.6zm0-13.9h-7.4v-5.6h7.4v5.6zm6.5 0h-5.6v-5.6h5.6v5.6zm8.2-17.6V55c0 1-.8 1.9-1.8 1.9H33.5v-2.8h20.2V17.4l-9.5-9.5H22.3v5.6h-2.8V7c0-1 .8-1.9 1.8-1.9h24.1l11.1 11.1zm-26.7.8c-3.2-1-6.4-1.5-9.8-1.5-3.3 0-6.6.5-9.8 1.5C8 17.8 8 20.4 8 20.4v35.5c0 1.4.9 2.6 2.3 3.1 3.2 1 6.4 1.5 9.8 1.5 3.3 0 6.6-.5 9.8-1.5 1.3-.5 2.2-1.7 2.3-3.1V20.4c-.2 0-.2-2.6-2.4-3.4zm0 39c0 .4-.3.8-.7 1-2.9.9-5.9 1.3-9 1.3-3.1 0-6.1-.5-9.1-1.3-.4-.2-.7-.5-.8-1v-3.7h19.5V56zm0-5.2H10.3V23h19.5v27.8zm0-29.3H10.3v-1.1s.1-1 .8-1.3c2.9-.9 5.9-1.3 9-1.4 3.1 0 6.1.5 9.1 1.4.6.2.7 1.3.7 1.3v1.1zM19.3 56.8h1.5c.4 0 .7-.3.8-.8v-1.5c0-.4-.3-.7-.8-.8h-1.5c-.4 0-.7.3-.8.8V56c0 .4.3.8.8.8z"/></svg>