<?xml version="1.0" encoding="utf-8"?>
<!-- Generator: Adobe Illustrator 18.1.0, SVG Export Plug-In . SVG Version: 6.00 Build 0)  -->
<!DOCTYPE svg PUBLIC "-//W3C//DTD SVG 1.1//EN" "http://www.w3.org/Graphics/SVG/1.1/DTD/svg11.dtd">
<svg version="1.1" id="Icons" xmlns="http://www.w3.org/2000/svg" xmlns:xlink="http://www.w3.org/1999/xlink" x="0px" y="0px"
	 width="64px" height="64px" viewBox="0 0 64 64" enable-background="new 0 0 64 64" xml:space="preserve">
<g>
	<path d="M21,27c-1.1,0-2,0.9-2,2v21c0,1.1,0.9,2,2,2h22c1.1,0,2-0.9,2-2V29c0-1.1-0.9-2-2-2H21z M36,29v6h-8v-6H36z M21,29h6v6h-6
		V29z M21,50v-6c1.5,0,3.7,0,6,0v6H21z M28,50v-6c3.4,0,6.7,0,8,0v6H28z M43,50h-6v-7c0,0-11.7,0-16,0v-7h22V50z M43,29v6h-6v-6H43z
		"/>
	<path d="M39.9,4h-26c-1.1,0-2,0.9-2,2v52c0,1.1,0.9,2,2,2h36c1.1,0,2-0.9,2-2V16L39.9,4z M48.9,57h-34V7h23.7l10.3,10.3V57z"/>
</g>
</svg>
