<svg xmlns="http://www.w3.org/2000/svg" width="64" height="64" viewBox="0 0 64 64">
  <title>smartphone</title>
  <path d="M45,4A45.12,45.12,0,0,0,32,2,44.1,44.1,0,0,0,19,4c-3,1-3,4.5-3,4.5V55.8a4.47,4.47,0,0,0,3,4.1,43.12,43.12,0,0,0,13,2,44.1,44.1,0,0,0,13-2,4.47,4.47,0,0,0,3-4.1V8.5S48,5,45,4Zm0,51.9a1.41,1.41,0,0,1-.9,1.3,41.37,41.37,0,0,1-12,1.8A43.68,43.68,0,0,1,20,57.2a1.67,1.67,0,0,1-1-1.3V51H45ZM45,49H19V12H45Zm0-39H19V8.5s.1-1.4,1-1.7A41.38,41.38,0,0,1,32,5,44.28,44.28,0,0,1,44.1,6.8c.8.3.9,1.7.9,1.7ZM31,57h2a1.08,1.08,0,0,0,1-1V54a1.08,1.08,0,0,0-1-1H31a1.08,1.08,0,0,0-1,1v2A1.08,1.08,0,0,0,31,57Z"/>
</svg>
