<svg xmlns="http://www.w3.org/2000/svg" width="64" height="64" viewBox="0 0 64 64">
  <title>add-to-favorites_outline</title>
  <path d="M32,10.3l4.82,14.64L37.5,27H55.32l-12.7,9.42L40.89,37.7l.67,2.05,4.81,14.82-12.6-9.16L32,44.13l-1.76,1.28-12.6,9.16,4.81-14.82.67-2.05-1.73-1.28L8.68,27H26.51l.68-2.06L32,10.3ZM32,4a1.5,1.5,0,0,0-1.43,1L24.33,24H4.14a1.5,1.5,0,0,0-.88,2.71L19.6,38.83,13.36,58a1.5,1.5,0,0,0,2.31,1.68L32,47.84,48.34,59.71A1.5,1.5,0,0,0,50.65,58L44.41,38.83,60.74,26.71A1.5,1.5,0,0,0,59.86,24H39.67L33.43,5A1.5,1.5,0,0,0,32,4Z"/>
</svg>
