<?xml version="1.0" encoding="utf-8"?>
<!-- Generator: Adobe Illustrator 22.1.0, SVG Export Plug-In . SVG Version: 6.00 Build 0)  -->
<svg version="1.1" id="Layer_1" xmlns="http://www.w3.org/2000/svg" xmlns:xlink="http://www.w3.org/1999/xlink" x="0px" y="0px"
	 viewBox="0 0 64 64" style="enable-background:new 0 0 64 64;" xml:space="preserve">
<g>
	<path d="M60,11c0-1.1-0.9-2-2-2H6c-1.1,0-2,0.9-2,2v1h56V11z"/>
	<path d="M2,14v14h60V14H2z M13,23h-2v-2h2V23z M12.6,19.6c0-0.8-0.3-1.6-0.8-2.3c-0.5-0.5-1.2-0.8-2-0.8v7.4c0,0.5,0.1,0.9,0.3,1.3
		c0.2,0.2,0.5,0.3,0.8,0.3h0.6V26h-5v-0.6h0.6c0.3,0,0.6-0.1,0.8-0.3c0.3-0.4,0.4-0.8,0.3-1.3v-7.4c-0.7,0-1.5,0.3-2,0.8
		c-0.5,0.7-0.8,1.5-0.8,2.3l-0.5-0.1L5,16h8l0.1,3.5L12.6,19.6z M5,23v-2h2v2H5z M19,23h-2v-2h2V23z M25,23h-2v-2h2V23z"/>
	<polygon points="57,52 45,52 45,30 43,30 43,52 43,52 21,52 21,52 21,30 19,30 19,52 7,52 7,30 4,30 4,55 60,55 60,30 57,30 	"/>
</g>
</svg>
