<?xml version="1.0" encoding="utf-8"?>
<!-- Generator: Adobe Illustrator 22.1.0, SVG Export Plug-In . SVG Version: 6.00 Build 0)  -->
<svg version="1.1" id="Layer_1" xmlns="http://www.w3.org/2000/svg" xmlns:xlink="http://www.w3.org/1999/xlink" x="0px" y="0px"
	 viewBox="0 0 64 64" style="enable-background:new 0 0 64 64;" xml:space="preserve">
<path d="M60,13.8c-0.1-1-1-1.8-2-1.8H6c-1.1,0-2,0.9-2,2v36c0,1.1,0.9,2,2,2h52c0.9,0,1.7-0.6,1.9-1.5H60V13.8z M53,49H7V15h46V49z
	 M58,33c0,0.6-0.4,1-1,1h-2c-0.6,0-1-0.4-1-1v-2c0-0.6,0.4-1,1-1h2c0.6,0,1,0.4,1,1V33z"/>
</svg>
