<?xml version="1.0" encoding="utf-8"?>
<!-- Generator: Adobe Illustrator 22.0.1, SVG Export Plug-In . SVG Version: 6.00 Build 0)  -->
<svg version="1.1" id="Layer_1" xmlns="http://www.w3.org/2000/svg" xmlns:xlink="http://www.w3.org/1999/xlink" x="0px" y="0px"
	 viewBox="0 0 64 64" style="enable-background:new 0 0 64 64;" xml:space="preserve">
<path d="M53.5,6H39V5c0-1.1-0.9-2-2-2H27c-1.1,0-2,0.9-2,2v1H10.5C9.7,6,9,6.7,9,7.5S9.7,9,10.5,9h43C54.3,9,55,8.3,55,7.5
	S54.3,6,53.5,6L53.5,6z M13.3,58c0,1.1,0.9,2,2,2h33.3c1.1,0,2-0.9,2-2l1.6-46H11.7L13.3,58z M39.5,22.5c0-0.8,0.7-1.5,1.5-1.5
	s1.5,0.7,1.5,1.5v27c0,0.8-0.7,1.5-1.5,1.5s-1.5-0.7-1.5-1.5V22.5z M30.5,22.6c0-0.8,0.7-1.5,1.5-1.5s1.5,0.7,1.5,1.5v26.9
	c0,0.8-0.7,1.5-1.5,1.5s-1.5-0.7-1.5-1.5V22.6z M21.5,22.5c0-0.8,0.7-1.5,1.5-1.5s1.5,0.7,1.5,1.5v27c0,0.8-0.7,1.5-1.5,1.5
	s-1.5-0.7-1.5-1.5V22.5z"/>
</svg>
