<?xml version="1.0" encoding="utf-8"?>
<!-- Generator: Adobe Illustrator 20.1.0, SVG Export Plug-In . SVG Version: 6.00 Build 0)  -->
<svg version="1.1" id="Icons" xmlns="http://www.w3.org/2000/svg" xmlns:xlink="http://www.w3.org/1999/xlink" x="0px" y="0px"
	 viewBox="0 0 64 64" style="enable-background:new 0 0 64 64;" xml:space="preserve">
<path d="M53.9,18.4c-1.6,0.7-3.3,1.2-5.2,1.4c1.9-1.1,3.3-2.9,3.9-5c-1.7,1-3.7,1.8-5.7,2.2c-1.6-1.7-4-2.8-6.5-2.8c-5,0-9,4-9,9
	c0,0.7,0.1,1.4,0.2,2c-7.5-0.4-14.1-3.9-18.5-9.4c-0.8,1.3-1.2,2.9-1.2,4.5c0,3.1,1.6,5.9,4,7.5c-1.5,0-2.9-0.4-4.1-1.1
	c0,0,0,0.1,0,0.1c0,4.3,3.1,8,7.2,8.8c-0.8,0.2-1.5,0.3-2.4,0.3c-0.6,0-1.1-0.1-1.7-0.2c1.1,3.6,4.5,6.2,8.4,6.2
	c-3.1,2.4-6.9,3.8-11.1,3.8c-0.7,0-1.4,0-2.1-0.1c4,2.5,8.7,4,13.7,4c16.5,0,25.5-13.7,25.5-25.5c0-0.4,0-0.8,0-1.2
	C51.1,21.8,52.7,20.2,53.9,18.4z"/>
</svg>
