<?xml version="1.0" encoding="utf-8"?>
<!-- Generator: Adobe Illustrator 20.1.0, SVG Export Plug-In . SVG Version: 6.00 Build 0)  -->
<svg version="1.1" id="Layer_1" xmlns="http://www.w3.org/2000/svg" xmlns:xlink="http://www.w3.org/1999/xlink" x="0px" y="0px"
	 viewBox="0 0 64 64" style="enable-background:new 0 0 64 64;" xml:space="preserve">
<path d="M18.4,45.9c-1.2,0-2.3-0.5-3.2-1.3l-9.5-9.5c-1.7-1.7-1.7-4.6,0-6.3l9.5-9.5c1.7-1.7,4.6-1.7,6.3,0l5.3,5.3l-2.1,2.1
	l-5.3-5.3c-0.6-0.6-1.5-0.6-2.1,0L7.9,31c-0.6,0.6-0.6,1.5,0,2.1l9.5,9.5c0.5,0.5,1.5,0.6,2.1,0l23.1-23.1c0.8-0.8,2-1.3,3.2-1.3
	s2.3,0.5,3.2,1.3l9.5,9.5c1.7,1.7,1.7,4.6,0,6.3L49,44.8c-1.7,1.7-4.6,1.7-6.3,0l-5.2-5.2l2.1-2.1l5.2,5.2c0.6,0.6,1.5,0.6,2.1,0
	l9.5-9.5c0.6-0.6,0.6-1.5,0-2.1l-9.5-9.5c-0.5-0.5-1.5-0.6-2.1,0l-23.3,23C20.7,45.5,19.6,45.9,18.4,45.9z"/>
</svg>
