<?xml version="1.0" encoding="UTF-8"?>
<svg width="1504px" height="482px" viewBox="0 0 1504 482" version="1.1" xmlns="http://www.w3.org/2000/svg" xmlns:xlink="http://www.w3.org/1999/xlink">
    <!-- Generator: Sketch 48.2 (47327) - http://www.bohemiancoding.com/sketch -->
    <title>section-background</title>
    <desc>Created with Sketch.</desc>
    <defs></defs>
    <g id="Page-1" stroke="none" stroke-width="1" fill="none" fill-rule="evenodd">
        <g id="section-background" transform="translate(-1.000000, -1.000000)" fill="#FFFFFF" fill-rule="nonzero">
            <path d="M1267.04348,119 L1206.17391,119 C1204.97329,119 1204,119.973294 1204,121.173913 L1204,159.217391 C1204,160.41801 1204.97329,161.391304 1206.17391,161.391304 L1232.26087,161.391304 L1232.26087,163.565217 L1242.04348,163.565217 L1242.04348,161.391304 L1267.04348,161.391304 C1268.2441,161.391304 1269.21739,160.41801 1269.21739,159.217391 L1269.21739,121.173913 C1269.21739,119.973294 1268.2441,119 1267.04348,119 Z M1265.95652,158.130435 L1207.26087,158.130435 L1207.26087,122.26087 L1265.95652,122.26087 L1265.95652,158.130435 Z M1250.73913,165.73913 L1222.47826,165.73913 C1221.89612,165.780869 1221.43304,166.243941 1221.3913,166.826087 L1221.3913,169 L1251.82609,169 L1251.82609,166.826087 C1251.82609,166.225777 1251.33944,165.73913 1250.73913,165.73913 Z" id="TV" opacity="0.2"></path>
            <path d="M314.26087,207 L229.043478,207 C227.362612,207 226,208.362612 226,210.043478 L226,263.304348 C226,264.985214 227.362612,266.347826 229.043478,266.347826 L265.565217,266.347826 L265.565217,269.391304 L279.26087,269.391304 L279.26087,266.347826 L314.26087,266.347826 C315.941736,266.347826 317.304348,264.985214 317.304348,263.304348 L317.304348,210.043478 C317.304348,208.362612 315.941736,207 314.26087,207 Z M312.73913,261.782609 L230.565217,261.782609 L230.565217,211.565217 L312.73913,211.565217 L312.73913,261.782609 Z M291.434783,272.434783 L251.869565,272.434783 C251.054561,272.493216 250.40626,273.141518 250.347826,273.956522 L250.347826,277 L292.956522,277 L292.956522,273.956522 C292.956522,273.116088 292.275216,272.434783 291.434783,272.434783 Z" id="TV" opacity="0.2"></path>
            <path d="M158.580499,482.9 L164.022676,482.9 L164.022676,477.457823 L158.580499,477.457823 L158.580499,482.9 Z M149.238095,469.929478 L151.052154,471.924943 C153.863946,469.385261 157.492063,467.934014 161.210884,467.934014 C165.020408,467.934014 168.557823,469.385261 171.369615,471.924943 L173.183673,469.929478 C169.918367,466.845578 165.655329,465.212925 161.120181,465.212925 C156.76644,465.212925 152.503401,466.845578 149.238095,469.929478 Z M141.619048,461.766213 L143.433107,463.761678 C148.331066,459.226531 154.589569,456.777551 161.210884,456.777551 C167.8322,456.777551 174.181406,459.226531 178.988662,463.761678 L180.802721,461.766213 C175.451247,456.777551 168.46712,454.056463 161.120181,454.056463 C153.954649,454.056463 146.970522,456.777551 141.619048,461.766213 Z M161.210884,442.9 C151.052154,442.9 141.437642,446.709524 134,453.602948 L135.814059,455.598413 C142.798186,449.158503 151.777778,445.621088 161.210884,445.621088 C170.643991,445.621088 179.714286,449.158503 186.60771,455.598413 L188.421769,453.602948 C181.07483,446.709524 171.369615,442.9 161.210884,442.9 Z" id="Wifi" opacity="0.2"></path>
            <path d="M1482.43537,159.9 L1486.51701,159.9 L1486.51701,155.818367 L1482.43537,155.818367 L1482.43537,159.9 Z M1475.42857,150.172109 L1476.78912,151.668707 C1478.89796,149.763946 1481.61905,148.67551 1484.40816,148.67551 C1487.26531,148.67551 1489.91837,149.763946 1492.02721,151.668707 L1493.38776,150.172109 C1490.93878,147.859184 1487.7415,146.634694 1484.34014,146.634694 C1481.07483,146.634694 1477.87755,147.859184 1475.42857,150.172109 Z M1469.71429,144.04966 L1471.07483,145.546259 C1474.7483,142.144898 1479.44218,140.308163 1484.40816,140.308163 C1489.37415,140.308163 1494.13605,142.144898 1497.7415,145.546259 L1499.10204,144.04966 C1495.08844,140.308163 1489.85034,138.267347 1484.34014,138.267347 C1478.96599,138.267347 1473.72789,140.308163 1469.71429,144.04966 Z M1484.40816,129.9 C1476.78912,129.9 1469.57823,132.757143 1464,137.927211 L1465.36054,139.42381 C1470.59864,134.593878 1477.33333,131.940816 1484.40816,131.940816 C1491.48299,131.940816 1498.28571,134.593878 1503.45578,139.42381 L1504.81633,137.927211 C1499.30612,132.757143 1492.02721,129.9 1484.40816,129.9 Z" id="Wifi" opacity="0.2"></path>
            <path d="M165,37 C164.447715,37 164,36.5522847 164,36 L164,34 C164,33.4477153 164.447715,33 165,33 L167,33 C167.552285,33 168,33.4477153 168,34 L168,36 C168,36.5522847 167.552285,37 167,37 L165,37 Z M172,17 L172,53 C172,54.1045695 171.104569,55 170,55 L118,55 C116.895431,55 116,54.1045695 116,53 L116,17 C116,15.8954305 116.895431,15 118,15 L170,15 C171.104569,15 172,15.8954305 172,17 Z M119,52 L161,52 L161,18 L119,18 L119,52 Z M169,18 L163,18 L163,52 L169,52 L169,18 Z" id="Tablet" opacity="0.2" transform="translate(144.000000, 35.000000) rotate(-300.000000) translate(-144.000000, -35.000000) "></path>
            <path d="M1403.07051,311.748711 C1402.65629,311.748711 1402.32051,311.412925 1402.32051,310.998711 L1402.32051,309.498711 C1402.32051,309.084498 1402.65629,308.748711 1403.07051,308.748711 L1404.57051,308.748711 C1404.98472,308.748711 1405.32051,309.084498 1405.32051,309.498711 L1405.32051,310.998711 C1405.32051,311.412925 1404.98472,311.748711 1404.57051,311.748711 L1403.07051,311.748711 Z M1408.32051,296.748711 L1408.32051,323.748711 C1408.32051,324.577138 1407.64894,325.248711 1406.82051,325.248711 L1367.82051,325.248711 C1366.99208,325.248711 1366.32051,324.577138 1366.32051,323.748711 L1366.32051,296.748711 C1366.32051,295.920284 1366.99208,295.248711 1367.82051,295.248711 L1406.82051,295.248711 C1407.64894,295.248711 1408.32051,295.920284 1408.32051,296.748711 Z M1368.57051,322.998711 L1400.07051,322.998711 L1400.07051,297.498711 L1368.57051,297.498711 L1368.57051,322.998711 Z M1406.07051,297.498711 L1401.57051,297.498711 L1401.57051,322.998711 L1406.07051,322.998711 L1406.07051,297.498711 Z" id="Tablet" opacity="0.2" transform="translate(1387.320508, 310.248711) rotate(-300.000000) translate(-1387.320508, -310.248711) "></path>
            <path d="M235,350 L243.571429,358.571429 L243.571429,388.571429 C243.571429,389.357143 242.928571,390 242.142857,390 L216.428571,390 C215.642857,390 215,389.357143 215,388.571429 L215,351.428571 C215,350.642857 215.642857,350 216.428571,350 L235,350 Z M241.428571,387.857143 L241.428571,359.5 L234.071429,352.142857 L217.142857,352.142857 L217.142857,387.857143 L241.428571,387.857143 Z M221.5,366.428571 L237.214286,366.428571 C238,366.428571 238.642857,367.071429 238.642857,367.857143 L238.642857,382.857143 C238.642857,383.642857 238,384.285714 237.214286,384.285714 L221.5,384.285714 C220.714286,384.285714 220.071429,383.642857 220.071429,382.857143 L220.071429,367.857143 C220.071429,367.071429 220.714286,366.428571 221.5,366.428571 Z M232.214286,367.857143 L226.5,367.857143 L226.5,372.142857 L232.214286,372.142857 L232.214286,367.857143 Z M221.5,367.857143 L221.5,372.142857 L225.785714,372.142857 L225.785714,367.857143 L221.5,367.857143 Z M221.5,382.857143 L225.785714,382.857143 L225.785714,378.571429 C224.142857,378.571429 222.571429,378.571429 221.5,378.571429 L221.5,382.857143 Z M226.5,382.857143 L232.214286,382.857143 L232.214286,378.571429 C231.285714,378.571429 228.928571,378.571429 226.5,378.571429 L226.5,382.857143 Z M237.214286,382.857143 L237.214286,372.857143 L221.5,372.857143 L221.5,377.857143 C224.571429,377.857143 232.928571,377.857143 232.928571,377.857143 L232.928571,382.857143 L237.214286,382.857143 Z M237.214286,367.857143 L232.928571,367.857143 L232.928571,372.142857 L237.214286,372.142857 L237.214286,367.857143 Z" id="Simcard" opacity="0.2"></path>
            <path d="M1371,44 L1383,56 L1383,98 C1383,99.1 1382.1,100 1381,100 L1345,100 C1343.9,100 1343,99.1 1343,98 L1343,46 C1343,44.9 1343.9,44 1345,44 L1371,44 Z M1380,97 L1380,57.3 L1369.7,47 L1346,47 L1346,97 L1380,97 Z M1352.1,67 L1374.1,67 C1375.2,67 1376.1,67.9 1376.1,69 L1376.1,90 C1376.1,91.1 1375.2,92 1374.1,92 L1352.1,92 C1351,92 1350.1,91.1 1350.1,90 L1350.1,69 C1350.1,67.9 1351,67 1352.1,67 Z M1367.1,69 L1359.1,69 L1359.1,75 L1367.1,75 L1367.1,69 Z M1352.1,69 L1352.1,75 L1358.1,75 L1358.1,69 L1352.1,69 Z M1352.1,90 L1358.1,90 L1358.1,84 C1355.8,84 1353.6,84 1352.1,84 L1352.1,90 Z M1359.1,90 L1367.1,90 L1367.1,84 C1365.8,84 1362.5,84 1359.1,84 L1359.1,90 Z M1374.1,90 L1374.1,76 L1352.1,76 L1352.1,83 C1356.4,83 1368.1,83 1368.1,83 L1368.1,90 L1374.1,90 Z M1374.1,69 L1368.1,69 L1368.1,75 L1374.1,75 L1374.1,69 Z" id="Simcard" opacity="0.2"></path>
            <path d="M1292.2237,341.739566 C1284.34747,339.31243 1276.15808,338.052525 1267.91653,338 C1259.67275,338.02444 1251.47925,339.284978 1243.60935,341.739566 C1238,343.609348 1238,350.153588 1238,350.153588 L1238,438.594316 C1238.09478,442.067146 1240.32801,445.119222 1243.60935,446.260426 C1251.47283,448.742625 1259.67057,450.003816 1267.91653,449.999991 C1276.1603,449.975552 1284.3538,448.715013 1292.2237,446.260426 C1295.50504,445.119222 1297.73827,442.067146 1297.83305,438.594316 L1297.83305,350.153588 C1297.83305,350.153588 1297.83305,343.609348 1292.2237,341.739566 Z M1292.2237,438.781294 C1292.21257,439.859407 1291.54609,440.822093 1290.5409,441.212012 C1283.26784,443.430599 1275.7074,444.564665 1268.1035,444.577621 C1260.44151,444.522576 1252.82538,443.389597 1245.47913,441.212012 C1244.47352,440.784711 1243.76441,439.862864 1243.60935,438.781294 L1243.60935,429.619359 L1292.2237,429.619359 L1292.2237,438.781294 Z M1292.2237,425.879793 L1243.60935,425.879793 L1243.60935,356.697828 L1292.2237,356.697828 L1292.2237,425.879793 Z M1292.2237,352.958263 L1243.60935,352.958263 L1243.60935,350.153588 C1243.60935,350.153588 1243.79633,347.535892 1245.47913,346.974958 C1252.75225,344.756637 1260.31265,343.622577 1267.91653,343.609348 C1275.57738,343.679066 1283.19148,344.811742 1290.5409,346.974958 C1292.03672,347.535892 1292.2237,350.153588 1292.2237,350.153588 L1292.2237,352.958263 Z M1266.04674,440.838055 L1269.78631,440.838055 C1270.78772,440.766257 1271.58429,439.96968 1271.65609,438.968273 L1271.65609,435.228707 C1271.58429,434.2273 1270.78772,433.430722 1269.78631,433.358924 L1266.04674,433.358924 C1265.04534,433.430722 1264.24876,434.2273 1264.17696,435.228707 L1264.17696,438.968273 C1264.24876,439.96968 1265.04534,440.766257 1266.04674,440.838055 Z" id="Smartphone" fill-opacity="0.2" transform="translate(1267.916525, 394.000000) rotate(-345.000000) translate(-1267.916525, -394.000000) "></path>
            <path d="M39.4691128,168.170284 C34.8980843,166.761678 30.1453164,166.030483 25.3622691,166 C20.5779371,166.014184 15.82278,166.745746 11.2554255,168.170284 C8,169.255425 8,173.053422 8,173.053422 L8,224.38063 C8.05500806,226.396112 9.35107684,228.167406 11.2554255,228.829711 C15.8190557,230.270274 20.5766723,231.002215 25.3622691,230.999995 C30.1466011,230.985811 34.9017582,230.254249 39.4691128,228.829711 C41.3734614,228.167406 42.6695301,226.396112 42.7245382,224.38063 L42.7245382,173.053422 C42.7245382,173.053422 42.7245382,169.255425 39.4691128,168.170284 Z M39.4691128,224.489144 C39.4626499,225.114834 39.0758562,225.673536 38.4924851,225.899828 C34.2715152,227.187401 29.8837612,227.845564 25.4707833,227.853084 C21.0240895,227.821138 16.6040135,227.163606 12.3405673,225.899828 C11.7569548,225.651841 11.3454159,225.116841 11.2554255,224.489144 L11.2554255,219.171949 L39.4691128,219.171949 L39.4691128,224.489144 Z M39.4691128,217.001665 L11.2554255,217.001665 L11.2554255,176.851418 L39.4691128,176.851418 L39.4691128,217.001665 Z M39.4691128,174.681135 L11.2554255,174.681135 L11.2554255,173.053422 C11.2554255,173.053422 11.3639396,171.534223 12.3405673,171.208681 C16.5615722,169.921263 20.9493031,169.263103 25.3622691,169.255425 C29.8082982,169.295886 34.2271964,169.953243 38.4924851,171.208681 C39.3605986,171.534223 39.4691128,173.053422 39.4691128,173.053422 L39.4691128,174.681135 Z M24.2771273,225.6828 L26.4474109,225.6828 C27.0285846,225.641131 27.4908842,225.178832 27.5325527,224.597658 L27.5325527,222.427375 C27.4908842,221.846201 27.0285846,221.383901 26.4474109,221.342233 L24.2771273,221.342233 C23.6959536,221.383901 23.233654,221.846201 23.1919855,222.427375 L23.1919855,224.597658 C23.233654,225.178832 23.6959536,225.641131 24.2771273,225.6828 Z" id="Smartphone" fill-opacity="0.2" transform="translate(25.362269, 198.500000) rotate(-345.000000) translate(-25.362269, -198.500000) "></path>
        </g>
    </g>
</svg>