<svg id="Layer_1" xmlns="http://www.w3.org/2000/svg" viewBox="0 0 64 64"><style>.st0{fill:#E20074;}</style><title>mobile-devices_outline</title><path class="st0" d="M55 6v47c0 1.1-.9 2-2 2H34v-3h18v-5H34v-2h18V7H22v8h-3V6c0-1.1.9-2 2-2h32c1.1 0 2 .9 2 2zM38.3 51c.4 0 .7-.3.7-.7v-1.6c0-.4-.3-.7-.7-.7h-1.6c-.4 0-.7.3-.7.7v1.6c0 .4.3.7.7.7h1.6zM32 21.7v34c0 1.4-.9 2.6-2.2 3-3 .9-6.1 1.4-9.3 1.4-3.2 0-6.3-.5-9.3-1.4-1.3-.4-2.2-1.6-2.2-3v-34s0-2.6 2.2-3.3c3-.9 6.1-1.4 9.3-1.4 3.2 0 6.3.5 9.3 1.4 1.3.6 2.2 1.9 2.2 3.3zM12 24h17v-2.2c0-.1-.1-.5-.2-.5-2.7-.8-5.5-1.2-8.3-1.2-2.8 0-5.7.4-8.4 1.3-.1.1-.1.3-.1.5V24zm0 2v24h17V26H12zm17 29.6V52H12v3.6c0 .1 0 .1.1.2 2.7.8 5.5 1.3 8.4 1.3 2.8 0 5.7-.4 8.4-1.3h.1c-.1 0 0-.1 0-.2zM21.3 53h-1.6c-.4 0-.7.3-.7.7v1.6c0 .4.3.7.7.7h1.6c.4 0 .7-.3.7-.7v-1.6c0-.4-.3-.7-.7-.7z"/></svg>