<svg id="Layer_1" xmlns="http://www.w3.org/2000/svg" viewBox="0 0 64 64"><style>.st0{fill:#E20074;}</style><title>smartphone_outline</title><path class="st0" d="M45 4c-4.2-1.3-8.6-2-13-2s-8.8.7-13 2c-3 1-3 4.5-3 4.5v47.3c.1 1.9 1.2 3.5 3 4.1 4.2 1.3 8.6 2 13 2s8.8-.7 13-2c1.8-.6 2.9-2.2 3-4.1V8.5S48 5 45 4zm0 51.9c0 .6-.4 1.1-.9 1.3-3.9 1.2-7.9 1.8-12 1.8s-8.2-.6-12.1-1.8c-.5-.2-.9-.7-1-1.3V51h26v4.9zm0-6.9H19V12h26v37zm0-39H19V8.5s.1-1.4 1-1.7C23.9 5.6 27.9 5 32 5s8.2.6 12.1 1.8c.8.3.9 1.7.9 1.7V10zM31 57h2c.5 0 1-.5 1-1v-2c0-.5-.5-1-1-1h-2c-.5 0-1 .5-1 1v2c0 .5.5 1 1 1z"/></svg>