<svg id="Layer_1" xmlns="http://www.w3.org/2000/svg" viewBox="0 0 64 64"><style>.st0{fill:#E20074;}</style><title>network_outline</title><path class="st0" d="M19 42v10H9V42h10zm.9-3H8.1C7 39 6 40 6 41.1v11.7C6 54 7 55 8.1 55h11.7c1.2 0 2.1-1 2.1-2.1V41.1c.1-1.1-.9-2.1-2-2.1zM55 42v10H45V42h10zm.9-3H44.1C43 39 42 40 42 41.1v11.7c0 1.2 1 2.1 2.1 2.1h11.7c1.2 0 2.1-1 2.1-2.1V41.1c.1-1.1-.9-2.1-2-2.1zm-10.8-2L39 26.8c-.4.1-.8.2-1.1.2h-1.1l6.1 10.2c.4-.1.8-.2 1.3-.2h.9zm-25.3 0c.4 0 .9.1 1.3.2L27.2 27h-1.1c-.4 0-.8-.1-1.1-.2L18.9 37h.9zM40 46H24v2h16v-2zm-3-34v10H27V12h10zm.9-3H26.1C25 9 24 10 24 11.1v11.7c0 1.2 1 2.1 2.1 2.1h11.7c1.2 0 2.1-1 2.1-2.1V11.1C40 10 39 9 37.9 9z"/></svg>