<svg id="Layer_1" xmlns="http://www.w3.org/2000/svg" viewBox="0 0 64 64"><style>.st0{fill:#E20074;}</style><title>open-telekom-cloud-v3_outline</title><path class="st0" d="M62 32.2c0 3.4-1.5 6.6-4 8.9-.1-1.1-.5-2.2-1.1-3.1 3.2-3.8 2.7-9.4-1-12.6-1-.9-2.3-1.5-3.6-1.8l-.9-.2-.2-.9c-1.6-8-9.4-13.1-17.3-11.5-3.7.7-7 2.9-9.2 6l-.6.9-1.1-.5c-.8-.3-1.7-.4-2.5-.4-3.8 0-7.1 2.8-7.7 6.6l-.2 1-1 .2c-3.8.7-6.6 4.1-6.6 8 0 2 .7 3.8 2 5.3-.6 1-1 2.1-1 3.2-4.7-4-5.4-11.1-1.4-15.8C6 23.8 7.9 22.6 10 22c1.2-4.8 5.5-8.1 10.4-8.1.8 0 1.6.1 2.4.3 6.1-7.6 17.3-8.9 24.9-2.8 3 2.4 5.1 5.7 6.1 9.4C58.7 22.5 62 27 62 32.2zM51.4 40H12.6c-.9 0-1.6.7-1.6 1.6v9.8c0 .9.7 1.6 1.6 1.6h38.8c.9 0 1.6-.7 1.6-1.6v-9.8c0-.9-.7-1.6-1.6-1.6zm-19.6 5.9c-.7 0-1.2-.6-1.2-1.2 0-.7.6-1.2 1.2-1.2.7 0 1.2.6 1.2 1.2 0 .7-.5 1.2-1.2 1.2zm-4.9 0c-.7 0-1.2-.5-1.2-1.2s.5-1.2 1.2-1.2 1.2.5 1.2 1.2-.6 1.2-1.2 1.2zm-4.9 0c-.7 0-1.2-.5-1.2-1.2s.5-1.2 1.2-1.2 1.2.5 1.2 1.2-.5 1.2-1.2 1.2zm-4.9 0c-.7 0-1.2-.5-1.2-1.2s.5-1.2 1.2-1.2 1.2.5 1.2 1.2-.5 1.2-1.2 1.2zM46.5 49c-1.4 0-2.5-1.2-2.4-2.5 0-1.4 1.2-2.5 2.5-2.4 1.4 0 2.4 1.1 2.4 2.5 0 1.3-1.1 2.4-2.5 2.4zm-14.7 1c-.7 0-1.2-.6-1.2-1.2 0-.7.6-1.2 1.2-1.2.7 0 1.2.5 1.2 1.2 0 .6-.5 1.2-1.2 1.2zm-4.9 0c-.7 0-1.2-.5-1.2-1.2s.5-1.2 1.2-1.2 1.2.5 1.2 1.2-.6 1.2-1.2 1.2zM22 50c-.7 0-1.2-.5-1.2-1.2s.5-1.2 1.2-1.2 1.2.5 1.2 1.2S22.7 50 22 50zm-4.9 0c-.7 0-1.2-.5-1.2-1.2s.5-1.2 1.2-1.2 1.2.5 1.2 1.2-.5 1.2-1.2 1.2zm34.3-13c2.6 0 4.6 2.1 4.6 4.6v9.8c0 2.5-2.1 4.6-4.6 4.6H12.6C10.1 56 8 53.9 8 51.4v-9.8c0-2.5 2.1-4.6 4.6-4.6h38.8zM39.8 26H34v7.3c0 .4-.3.8-.8.8-.4 0-.8-.3-.8-.8V26h-5.8l6.5-6.5 6.7 6.5z"/></svg>