<?xml version="1.0" encoding="utf-8"?>
<!-- Generator: Adobe Illustrator 14.0.0, SVG Export Plug-In . SVG Version: 6.00 Build 43363)  -->
<!DOCTYPE svg PUBLIC "-//W3C//DTD SVG 1.1//EN" "http://www.w3.org/Graphics/SVG/1.1/DTD/svg11.dtd">
<svg version="1.1" id="Logo" xmlns="http://www.w3.org/2000/svg" xmlns:xlink="http://www.w3.org/1999/xlink" x="0px" y="0px"
	 width="400px" height="300px" viewBox="0 0 400 300" enable-background="new 0 0 400 300" xml:space="preserve">
<g>
	<g>
		<path fill="#FE0000" d="M201.021,48.483c-37.365,0-67.654,30.288-67.654,67.651s30.29,67.653,67.654,67.653
			c37.361,0,67.649-30.29,67.649-67.653S238.383,48.483,201.021,48.483z"/>
	</g>
	<g>
		<g>
			<path fill="#FFFFFF" d="M174.899,143.098c4.588,4.668,10.246,8.037,16.363,9.805c1.857,0.54,3.76,0.931,5.688,1.166
				c1.243,0.152,2.5,0.237,3.762,0.257c3.386,0.048,6.752-0.394,9.982-1.282c4.583-1.264,8.903-3.427,12.653-6.379
				c1.071-0.84,2.09-1.743,3.057-2.706c2.635-2.618,4.798-5.61,6.446-8.845c2.529-4.958,3.865-10.498,3.865-16.155
				c0-0.431-0.008-0.864-0.026-1.297c-0.118-3.396-0.632-6.618-1.542-9.629c-0.932-3.073-2.268-5.926-4.012-8.517
				c-0.176-0.263-0.357-0.521-0.539-0.777c-2.381-3.313-5.456-6.175-9.219-8.499c-3.931-2.432-8.578-4.347-14.01-5.496
				c-0.014-0.267-0.043-0.537-0.043-0.818c0-11.836,7.579-21.915,18.213-25.688c0.994-0.354,1.422-0.645,1.468-0.873
				c0.002-0.014-0.007-0.083-0.013-0.101c-0.105-0.325-1.04-0.5-2.079-0.524c-1.607-0.037-3.546,0.051-5.729,0.292
				c-2.522,0.28-5.375,0.767-8.412,1.507c-1.106,0.272-2.242,0.576-3.395,0.916c-1.782,0.527-3.606,1.142-5.449,1.849
				c-6.184,2.382-12.573,5.833-18.215,10.672c-8.463,7.16-15.683,17.531-18.703,29.803c-0.757,3.073-1.249,6.264-1.435,9.554
				c-0.012,0.235-0.023,0.463-0.032,0.696c-0.094,2.295-0.02,4.591,0.224,6.859c0.242,2.224,0.646,4.424,1.217,6.569
				c0.073,0.292,0.156,0.58,0.238,0.869c1.088,3.777,2.694,7.391,4.824,10.704C171.441,139.191,173.056,141.227,174.899,143.098z"/>
		</g>
	</g>
	<g>
		<g>
			<polygon fill="#FE0000" points="63.612,211.852 72.283,234.723 80.669,211.852 91.532,211.852 77.334,246.918 67.043,246.918 
				52.273,211.852 			"/>
			<path fill="#FE0000" d="M110.019,247.777c-11.244,0-18.296-7.908-18.296-18.39c0-10.483,7.052-18.393,18.296-18.393
				c11.339,0,18.391,7.909,18.391,18.393C128.409,239.869,121.358,247.777,110.019,247.777z M110.019,218.999
				c-5.432,0-8.1,4.767-8.1,10.483c0,5.621,2.668,10.291,8.1,10.291c5.432,0,8.1-4.67,8.1-10.291
				C118.118,223.765,115.45,218.999,110.019,218.999z"/>
			<path fill="#FE0000" d="M167.478,197.559v48.693c-4.192,0.858-9.052,1.524-14.96,1.524c-12.102,0-19.916-6.385-19.916-18.582
				c0-10.291,7.052-18.2,17.628-18.2c3.049,0,6.003,0.667,7.624,1.334v-14.77H167.478z M157.854,220.62
				c-1.525-0.858-3.907-1.621-6.861-1.621c-5.241,0-8.194,4.479-8.194,10.196c0,6.957,4.479,10.483,9.91,10.483
				c1.906,0,3.811-0.096,5.146-0.381V220.62z"/>
			<path fill="#FE0000" d="M171.957,230.148c0-11.055,8.196-19.153,19.916-19.153c5.813,0,11.72,1.431,15.055,2.766v33.158h-8.575
				l-0.666-3.049c-2.002,2.288-4.861,3.907-9.435,3.907C179.007,247.777,171.957,241.012,171.957,230.148z M197.209,219.952
				c-1.049-0.285-3.145-0.668-5.527-0.668c-4.669,0-9.529,3.624-9.529,10.483c0,6.766,3.812,10.006,8.1,10.006
				c3.238,0,5.812-1.717,6.956-3.621V219.952z"/>
			<path fill="#FE0000" d="M225.511,196.702c2.572,0,5.716,0.477,7.431,0.857v8.385c-1.524-0.189-4.097-0.38-5.431-0.38
				c-2.288,0-3.144,0.38-3.907,1.048c-0.668,0.666-0.855,1.62-0.855,3.145v2.096h8.859v8.482h-8.859v26.584h-9.628v-37.924
				c0-4.099,1.336-7.147,3.528-9.244C218.744,197.75,221.984,196.702,225.511,196.702z"/>
			<path fill="#FE0000" d="M250.855,247.777c-11.339,0-18.39-7.908-18.39-18.39c0-10.483,7.051-18.393,18.39-18.393
				c11.34,0,18.298,7.909,18.298,18.393C269.153,239.869,262.195,247.777,250.855,247.777z M250.855,218.999
				c-5.431,0-8.099,4.767-8.099,10.483c0,5.621,2.668,10.291,8.099,10.291c5.434,0,8.102-4.67,8.102-10.291
				C258.957,223.765,256.289,218.999,250.855,218.999z"/>
			<path fill="#FE0000" d="M298.407,227.67c0-5.239-2.668-7.909-8.006-7.909c-2.668,0-5.621,0.476-7.146,0.858v26.299h-9.625V213.76
				c4.382-1.526,10.674-2.766,16.865-2.766c11.149,0,17.629,5.528,17.629,14.771v21.153h-9.718V227.67z"/>
			<path fill="#FE0000" d="M312.604,229.195c0-11.147,7.051-18.295,17.247-18.295c10.291,0,16.295,8.004,16.295,17.819
				c0,1.334-0.096,3.144-0.192,3.906h-23.536c0.479,4.955,3.719,7.623,10.102,7.623c5.433,0,9.815-1.144,12.293-1.904v6.384
				c-3.146,1.524-7.243,2.954-12.674,2.954C319.75,247.682,312.604,241.107,312.604,229.195z M337.284,225.575
				c-0.285-3.621-2.858-6.576-7.433-6.576c-4.575,0-6.86,2.479-7.243,6.576H337.284z"/>
		</g>
	</g>
</g>
</svg>
